<?xml version="1.0" encoding="utf-8"?>
<!-- Generator: Adobe Illustrator 15.0.2, SVG Export Plug-In . SVG Version: 6.00 Build 0)  -->
<!DOCTYPE svg PUBLIC "-//W3C//DTD SVG 1.1//EN" "http://www.w3.org/Graphics/SVG/1.1/DTD/svg11.dtd">
<svg version="1.1" id="Calque_1" xmlns="http://www.w3.org/2000/svg" xmlns:xlink="http://www.w3.org/1999/xlink" x="0px" y="0px"
	 width="34px" height="34px" viewBox="0 0 34 34" enable-background="new 0 0 34 34" xml:space="preserve">
<linearGradient id="SVGID_1_" gradientUnits="userSpaceOnUse" x1="307.5605" y1="620.1855" x2="307.5605" y2="654.1855" gradientTransform="matrix(1 0 0 1 -290.5605 -620.0596)">
	<stop  offset="0" style="stop-color:#D31147"/>
	<stop  offset="1" style="stop-color:#F01B57"/>
</linearGradient>
<rect fill="url(#SVGID_1_)" width="34" height="34"/>
<g>
	<path fill="#2E2E2D" d="M27.268,16.987l-9.694-8.838c-0.147-0.133-0.353-0.166-0.572-0.141c-0.22-0.025-0.427,0.007-0.575,0.141
		l-9.692,8.838c-0.35,0.318-0.255,0.991,0.21,1.501C7.41,19,8.071,19.157,8.42,18.837l8.58-7.82l8.579,7.821
		c0.349,0.319,1.01,0.165,1.476-0.345C27.521,17.978,27.615,17.305,27.268,16.987z"/>
	<path fill="#2E2E2D" d="M17.346,12.323c-0.169-0.149-0.449-0.151-0.618-0.002l-6.458,5.615c-0.17,0.148-0.31,0.455-0.31,0.68v6.972
		c0,0.229,0.184,0.413,0.411,0.413h4.144c0.226,0,0.411-0.185,0.411-0.413v-5.372c0-0.229,0.184-0.412,0.411-0.412h3.324
		c0.229,0,0.412,0.183,0.412,0.412v5.372c0,0.229,0.186,0.413,0.412,0.413h4.101c0.227,0,0.41-0.185,0.41-0.413v-6.972
		c0-0.229-0.134-0.532-0.308-0.682L17.346,12.323z"/>
	<path fill="#2E2E2D" d="M23.688,12.924c0.165,0.152,0.301,0.091,0.301-0.133V9.549c0-0.226-0.183-0.411-0.408-0.411H21.16
		c-0.23,0-0.414,0.185-0.414,0.411v0.287c0,0.226,0.136,0.535,0.307,0.687L23.688,12.924z"/>
</g>
</svg>
