<?xml version="1.0" encoding="utf-8"?>
<!-- Generator: Adobe Illustrator 15.0.2, SVG Export Plug-In . SVG Version: 6.00 Build 0)  -->
<!DOCTYPE svg PUBLIC "-//W3C//DTD SVG 1.1//EN" "http://www.w3.org/Graphics/SVG/1.1/DTD/svg11.dtd">
<svg version="1.1" id="Calque_1" xmlns="http://www.w3.org/2000/svg" xmlns:xlink="http://www.w3.org/1999/xlink" x="0px" y="0px"
	 width="34px" height="34px" viewBox="0 0 34 34" enable-background="new 0 0 34 34" xml:space="preserve">
<linearGradient id="SVGID_1_" gradientUnits="userSpaceOnUse" x1="307.5605" y1="620.1855" x2="307.5605" y2="654.1855" gradientTransform="matrix(1 0 0 1 -290.5605 -620.0596)">
	<stop  offset="0" style="stop-color:#F01B57"/>
	<stop  offset="1" style="stop-color:#D31147"/>
</linearGradient>
<rect opacity="0.75" fill="url(#SVGID_1_)" width="34" height="34"/>
<g>
	<path fill="#0A7039" d="M27.267,16.986l-9.693-8.837c-0.147-0.134-0.353-0.166-0.572-0.142c-0.22-0.025-0.427,0.006-0.575,0.142
		l-9.692,8.837c-0.349,0.318-0.255,0.99,0.211,1.501c0.467,0.512,1.127,0.669,1.477,0.35L17,11.017l8.579,7.821
		c0.348,0.318,1.01,0.164,1.476-0.346C27.521,17.977,27.615,17.305,27.267,16.986z"/>
	<path fill="#0A7039" d="M17.345,12.323c-0.169-0.149-0.448-0.151-0.618-0.003l-6.458,5.616c-0.17,0.147-0.31,0.454-0.31,0.68v6.97
		c0,0.229,0.184,0.415,0.41,0.415h4.144c0.225,0,0.41-0.186,0.41-0.415v-5.37c0-0.231,0.184-0.414,0.41-0.414h3.324
		c0.23,0,0.414,0.183,0.414,0.414v5.37c0,0.229,0.186,0.415,0.411,0.415h4.101c0.228,0,0.413-0.186,0.413-0.415v-6.97
		c0-0.231-0.134-0.533-0.309-0.682L17.345,12.323z"/>
	<path fill="#0A7039" d="M23.688,12.924c0.165,0.152,0.301,0.091,0.301-0.134V9.549c0-0.226-0.183-0.411-0.408-0.411h-2.422
		c-0.23,0-0.414,0.185-0.414,0.411v0.287c0,0.225,0.134,0.534,0.307,0.687L23.688,12.924z"/>
</g>
</svg>
