<?xml version="1.0" encoding="utf-8"?>
<!-- Generator: Adobe Illustrator 15.0.2, SVG Export Plug-In . SVG Version: 6.00 Build 0)  -->
<!DOCTYPE svg PUBLIC "-//W3C//DTD SVG 1.1//EN" "http://www.w3.org/Graphics/SVG/1.1/DTD/svg11.dtd">
<svg version="1.1" id="Calque_1" xmlns="http://www.w3.org/2000/svg" xmlns:xlink="http://www.w3.org/1999/xlink" x="0px" y="0px"
	 width="139.982px" height="139.982px" viewBox="0 0 139.982 139.982" enable-background="new 0 0 139.982 139.982"
	 xml:space="preserve">
<g>
	
		<linearGradient id="SVGID_1_" gradientUnits="userSpaceOnUse" x1="-97.5867" y1="114.113" x2="-191.2404" y2="207.7668" gradientTransform="matrix(1 0 0 -1 214.3999 232.021)">
		<stop  offset="0" style="stop-color:#89AD03"/>
		<stop  offset="1" style="stop-color:#BBD75E"/>
	</linearGradient>
	<path fill="url(#SVGID_1_)" d="M97.834,19.184c-18.409,0-2.301,4.833-27.843,4.833c-25.543,0-9.435-4.833-27.844-4.833
		c-18.408,0-41.649,14.728-41.649,43.49c0,28.764,24.852,77.316,57.757,77.316c0,0,4.373-1.151,11.736-1.151
		c7.362,0,11.736,1.151,11.736,1.151c32.905,0,57.757-48.552,57.757-77.316C139.484,33.911,116.243,19.184,97.834,19.184z"/>
	
		<linearGradient id="SVGID_2_" gradientUnits="userSpaceOnUse" x1="-195.8264" y1="130.5291" x2="-122.652" y2="191.2777" gradientTransform="matrix(1 0 0 -1 214.3999 232.021)">
		<stop  offset="0" style="stop-color:#FFFFFF;stop-opacity:0.55"/>
		<stop  offset="1" style="stop-color:#FFFFFF;stop-opacity:0"/>
	</linearGradient>
	<path fill="url(#SVGID_2_)" d="M19.309,32.301c0,0-13.116,14.842-13.116,31.063c0,16.224,16.568,72.14,54.019,72.14
		c0,0-16.74-13.806-16.74-44.527c0-30.72,16.624-33.651,26.52-33.651c9.894,0,11.965,2.934,18.351,2.934
		c6.387,0,21.745-0.172,21.745-22.263S91.966,24.017,91.966,24.017S74.017,38.342,47.267,38.342S19.309,32.301,19.309,32.301z"/>
	<g>
		<g>
			<path fill="#593503" d="M67.249,24.35C65.218,7.614,75.641,0.295,76.085-0.009l3.129,4.55c-0.33,0.234-8.094,5.87-6.482,19.143
				L67.249,24.35z"/>
		</g>
	</g>
	<path fill="#436E12" d="M7.861,0.682c0,0,4.703,32.413,36.811,32.413c27.913,0,25.768-10.328,25.768-10.328
		s2.967-10.634-28.63-10.634C10.213,12.135,7.861,0.682,7.861,0.682z"/>
	
		<linearGradient id="SVGID_3_" gradientUnits="userSpaceOnUse" x1="-202.281" y1="212.7078" x2="-148.2585" y2="212.7078" gradientTransform="matrix(1 0 0 -1 214.3999 232.021)">
		<stop  offset="0" style="stop-color:#FFFFFF;stop-opacity:0.55"/>
		<stop  offset="0.0596" style="stop-color:#FFFFFF;stop-opacity:0.5172"/>
		<stop  offset="1" style="stop-color:#FFFFFF;stop-opacity:0"/>
	</linearGradient>
	<path fill="url(#SVGID_3_)" d="M12.119,7.794c0,0,5.118,23.04,32.215,23.04c23.558,0,21.745-8.715,21.745-8.715
		s2.503-8.975-24.161-8.975S12.119,7.794,12.119,7.794z"/>
</g>
</svg>
