<?xml version="1.0" encoding="utf-8"?>
<!-- Generator: Adobe Illustrator 15.0.2, SVG Export Plug-In . SVG Version: 6.00 Build 0)  -->
<!DOCTYPE svg PUBLIC "-//W3C//DTD SVG 1.1//EN" "http://www.w3.org/Graphics/SVG/1.1/DTD/svg11.dtd">
<svg version="1.1" id="Calque_1" xmlns="http://www.w3.org/2000/svg" xmlns:xlink="http://www.w3.org/1999/xlink" x="0px" y="0px"
	 width="150px" height="220px" viewBox="0 0 150 220" enable-background="new 0 0 150 220" xml:space="preserve">
<g>
	<linearGradient id="SVGID_1_" gradientUnits="userSpaceOnUse" x1="22.6255" y1="63.9106" x2="126.7533" y2="168.0384">
		<stop  offset="0" style="stop-color:#FCC71F"/>
		<stop  offset="1" style="stop-color:#FC7826"/>
	</linearGradient>
	<circle fill="url(#SVGID_1_)" cx="75" cy="116.284" r="75"/>
	<linearGradient id="SVGID_2_" gradientUnits="userSpaceOnUse" x1="22.6255" y1="63.9106" x2="126.7533" y2="168.0384">
		<stop  offset="0" style="stop-color:#FCC71F"/>
		<stop  offset="0.2415" style="stop-color:#FAC51F"/>
		<stop  offset="0.3788" style="stop-color:#F1BF1E"/>
		<stop  offset="0.4901" style="stop-color:#E3B41C"/>
		<stop  offset="0.5875" style="stop-color:#D0A41A"/>
		<stop  offset="0.6756" style="stop-color:#B69016"/>
		<stop  offset="0.7573" style="stop-color:#967712"/>
		<stop  offset="0.8338" style="stop-color:#71590E"/>
		<stop  offset="0.9064" style="stop-color:#453709"/>
		<stop  offset="0.9733" style="stop-color:#151103"/>
		<stop  offset="1" style="stop-color:#000000"/>
	</linearGradient>
	<circle opacity="0.14" fill="url(#SVGID_2_)" cx="75" cy="116.284" r="75"/>
	<g>
		<path fill="#507700" d="M73.049,54.553c-0.134,0-0.27-0.007-0.408-0.024c-1.832-0.222-3.138-1.882-2.926-3.711
			c0.037-0.355,0.752-7.929-5.587-14.972c-1.239-1.376-1.127-3.495,0.249-4.734c1.376-1.237,3.495-1.126,4.735,0.25
			c8.464,9.404,7.313,19.805,7.26,20.243C76.166,53.306,74.72,54.553,73.049,54.553z"/>
	</g>
	<path fill="#507700" d="M83.799,56.578c0,0-6.809-5.342-1.99-11.207c0,0-7.564,5.027-8.706-1.886c0,0-0.827,5.237-8.054,3.247
		c0,0,8.384,4.245,0.744,8.656c0,0,2.759,2.164,8.631-3.104C74.424,52.284,75.419,55.636,83.799,56.578z"/>
	<path fill="#507700" d="M8.065,47.36c0,0,13.303-18.645,30.168-18.645c16.864,0,31.628,22.485,31.628,22.485
		s-4.387,11.243-19.475,11.243C35.3,62.444,27.444,46.523,8.065,47.36z"/>
	<linearGradient id="SVGID_3_" gradientUnits="userSpaceOnUse" x1="7.1226" y1="124.0371" x2="65.7392" y2="124.0371">
		<stop  offset="0" style="stop-color:#FFFFFF;stop-opacity:0.55"/>
		<stop  offset="1" style="stop-color:#FFFFFF;stop-opacity:0"/>
	</linearGradient>
	<path fill="url(#SVGID_3_)" d="M31.425,62.444c0,0-26.397,16.131-26.397,57.193c0,41.061,38.129,65.991,69.344,65.991
		c31.214,0,97.658-38.775,26.583-61.592c-56.123-18.017-54.446-56.774-54.446-56.774S38.72,66.656,31.425,62.444z"/>
	<linearGradient id="SVGID_4_" gradientUnits="userSpaceOnUse" x1="14.0366" y1="42.123" x2="63.0581" y2="42.123">
		<stop  offset="0" style="stop-color:#FFFFFF;stop-opacity:0.55"/>
		<stop  offset="0.0596" style="stop-color:#FFFFFF;stop-opacity:0.5172"/>
		<stop  offset="1" style="stop-color:#FFFFFF;stop-opacity:0"/>
	</linearGradient>
	<path fill="url(#SVGID_4_)" d="M14.037,43.799c0,0,9.741-12.15,25.244-12.15s23.777,15.607,23.777,15.607s-4.713,5.342-14.35,5.342
		c-9.637,0-18.34-8.681-24.673-8.681S14.037,43.799,14.037,43.799z"/>
</g>
</svg>
