<?xml version="1.0" encoding="utf-8"?>
<!-- Generator: Adobe Illustrator 15.0.2, SVG Export Plug-In . SVG Version: 6.00 Build 0)  -->
<!DOCTYPE svg PUBLIC "-//W3C//DTD SVG 1.1//EN" "http://www.w3.org/Graphics/SVG/1.1/DTD/svg11.dtd">
<svg version="1.1" id="Calque_1" xmlns="http://www.w3.org/2000/svg" xmlns:xlink="http://www.w3.org/1999/xlink" x="0px" y="0px"
	 width="280px" height="175px" viewBox="0 0 280 175" enable-background="new 0 0 280 175" xml:space="preserve">
<g>
	<path fill="none" stroke="#5C8F0C" stroke-width="4.2116" stroke-miterlimit="10" d="M174.992,85.106
		c-5.764-10.316-21.85-43.598-11.066-77.122c0,0-57.753,2.334-72.979,85.8"/>
	
		<linearGradient id="SVGID_1_" gradientUnits="userSpaceOnUse" x1="-223.2739" y1="-634.8208" x2="-143.1646" y2="-634.8208" gradientTransform="matrix(1 0 0 -1 387.1997 -609.8799)">
		<stop  offset="0" style="stop-color:#5C8F0C"/>
		<stop  offset="0.35" style="stop-color:#5E900E"/>
		<stop  offset="0.549" style="stop-color:#679213"/>
		<stop  offset="0.7101" style="stop-color:#75961D"/>
		<stop  offset="0.851" style="stop-color:#889C2B"/>
		<stop  offset="0.9774" style="stop-color:#A2A33C"/>
		<stop  offset="1" style="stop-color:#A7A540"/>
	</linearGradient>
	<path fill="url(#SVGID_1_)" d="M163.926,7.986c0,0,6.801-7.986,23.121-7.986c16.318,0,45.01,35.931,56.988,35.931
		c0,0-13.424,13.951-30.932,13.951C187.178,49.881,163.926,24.79,163.926,7.986z"/>
	
		<linearGradient id="SVGID_2_" gradientUnits="userSpaceOnUse" x1="-151.9307" y1="-654.0195" x2="-212.4716" y2="-628.7504" gradientTransform="matrix(1 0 0 -1 387.1997 -609.8799)">
		<stop  offset="0" style="stop-color:#FFFFFF;stop-opacity:0.55"/>
		<stop  offset="0.0596" style="stop-color:#FFFFFF;stop-opacity:0.5172"/>
		<stop  offset="1" style="stop-color:#FFFFFF;stop-opacity:0"/>
	</linearGradient>
	<path fill="url(#SVGID_2_)" d="M238.243,37.378c0,0-10.005,9.213-25.796,9.213c-15.797,0-39.483-16.583-39.483-33.43
		c0-16.847,26.845,4.211,36.058,12.108C218.238,33.167,227.451,37.378,238.243,37.378z"/>
	<g>
		
			<linearGradient id="SVGID_3_" gradientUnits="userSpaceOnUse" x1="-274.2251" y1="-713.3511" x2="-333.1847" y2="-772.3109" gradientTransform="matrix(1 0 0 -1 387.1997 -609.8799)">
			<stop  offset="0" style="stop-color:#E63468"/>
			<stop  offset="0.3166" style="stop-color:#E43366"/>
			<stop  offset="0.4967" style="stop-color:#DD305D"/>
			<stop  offset="0.6425" style="stop-color:#D22A4F"/>
			<stop  offset="0.7699" style="stop-color:#C2213C"/>
			<stop  offset="0.8849" style="stop-color:#AD1622"/>
			<stop  offset="0.9904" style="stop-color:#940903"/>
			<stop  offset="1" style="stop-color:#910800"/>
		</linearGradient>
		<path fill="url(#SVGID_3_)" d="M99.833,96.188c0.013,0.106,0.062,0.211,0.047,0.316c-0.274,1.803-4.974,2.587-10.504,1.755
			c-5.527-0.833-9.787-2.976-9.515-4.776c0.026-0.176,0.129-0.334,0.235-0.489c-23.429,0.688-42.688,16.884-44.054,37.983
			c-1.463,22.592,18.135,42.256,43.773,43.912c25.638,1.662,47.604-15.309,49.07-37.904
			C130.05,118.977,117.826,102.84,99.833,96.188z"/>
		<path fill="#5C8F0C" d="M89.376,98.257c5.53,0.834,10.23,0.048,10.504-1.755c0.015-0.104-0.034-0.208-0.047-0.314
			c-4.578-1.691-9.521-2.779-14.722-3.113c-1.69-0.109-3.363-0.139-5.016-0.088c-0.108,0.154-0.208,0.314-0.235,0.49
			C79.589,95.283,83.851,97.424,89.376,98.257z"/>
	</g>
	<g>
		
			<linearGradient id="SVGID_4_" gradientUnits="userSpaceOnUse" x1="-617.0591" y1="-1070.0503" x2="-676.0178" y2="-1129.009" gradientTransform="matrix(0.9239 -0.3826 -0.3826 -0.9239 367.075 -1143.5728)">
			<stop  offset="0" style="stop-color:#E63468"/>
			<stop  offset="0.3166" style="stop-color:#E43366"/>
			<stop  offset="0.4967" style="stop-color:#DD305D"/>
			<stop  offset="0.6425" style="stop-color:#D22A4F"/>
			<stop  offset="0.7699" style="stop-color:#C2213C"/>
			<stop  offset="0.8849" style="stop-color:#AD1622"/>
			<stop  offset="0.9904" style="stop-color:#940903"/>
			<stop  offset="1" style="stop-color:#910800"/>
		</linearGradient>
		<path fill="url(#SVGID_4_)" d="M233.898,106.011c-6.412-18.849-27.008-29.355-48.422-25.992c0.312,0.157,0.555,0.347,0.656,0.608
			c0.666,1.713-3.802,5.049-9.98,7.45c-6.184,2.399-11.729,2.957-12.395,1.243c-0.074-0.193-0.078-0.404-0.027-0.635
			c-15.967,11.057-23.785,30.029-17.91,47.291c7.289,21.432,32.922,32.104,57.24,23.826
			C227.385,151.532,241.188,127.445,233.898,106.011z"/>
		<path fill="#5C8F0C" d="M163.759,89.32c0.665,1.712,6.212,1.156,12.394-1.242c6.181-2.401,10.647-5.736,9.981-7.45
			c-0.099-0.26-0.346-0.451-0.655-0.608c-2.938,0.461-5.889,1.171-8.822,2.168c-4.731,1.611-9.063,3.828-12.926,6.5
			C163.682,88.916,163.684,89.128,163.759,89.32z"/>
	</g>
</g>
</svg>
