<?xml version="1.0" encoding="utf-8"?>
<!-- Generator: Adobe Illustrator 15.0.2, SVG Export Plug-In . SVG Version: 6.00 Build 0)  -->
<!DOCTYPE svg PUBLIC "-//W3C//DTD SVG 1.1//EN" "http://www.w3.org/Graphics/SVG/1.1/DTD/svg11.dtd">
<svg version="1.1" id="Calque_1" xmlns="http://www.w3.org/2000/svg" xmlns:xlink="http://www.w3.org/1999/xlink" x="0px" y="0px"
	 width="280px" height="365px" viewBox="0 0 280 365" enable-background="new 0 0 280 365" xml:space="preserve">
<g>
	
		<linearGradient id="SVGID_1_" gradientUnits="userSpaceOnUse" x1="-194.4722" y1="944.9551" x2="-383.1459" y2="756.2813" gradientTransform="matrix(1 0 0 1 428.7998 -665.9209)">
		<stop  offset="0" style="stop-color:#89AD03"/>
		<stop  offset="1" style="stop-color:#BBD75E"/>
	</linearGradient>
	<path fill="url(#SVGID_1_)" d="M196.095,80.146c-37.089,0-4.637,9.735-56.093,9.735c-51.459,0-19.006-9.735-56.094-9.735
		C46.822,80.146,0,109.816,0,167.761c0,57.947,50.064,155.76,116.355,155.76c0,0,8.811-2.318,23.645-2.318
		c14.832,0,23.645,2.318,23.645,2.318c66.292,0,116.355-97.81,116.355-155.76C280.002,109.813,233.179,80.146,196.095,80.146z"/>
	
		<linearGradient id="SVGID_2_" gradientUnits="userSpaceOnUse" x1="-392.3828" y1="911.8789" x2="-244.9666" y2="789.4957" gradientTransform="matrix(1 0 0 1 428.7998 -665.9209)">
		<stop  offset="0" style="stop-color:#FFFFFF;stop-opacity:0.55"/>
		<stop  offset="1" style="stop-color:#FFFFFF;stop-opacity:0"/>
	</linearGradient>
	<path fill="url(#SVGID_2_)" d="M37.898,106.569c0,0-26.425,29.899-26.425,62.578c0,32.684,33.379,145.331,108.824,145.331
		c0,0-33.724-27.813-33.724-89.705c0-61.885,33.49-67.792,53.425-67.792c19.931,0,24.104,5.91,36.967,5.91
		c12.866,0,43.809-0.347,43.809-44.851s-36.506-28.16-36.506-28.16s-36.158,28.857-90.047,28.857
		C40.332,118.738,37.898,106.569,37.898,106.569z"/>
	<g>
		<g>
			<path fill="#593503" d="M134.477,90.553c-4.091-33.717,16.907-48.461,17.802-49.073l6.302,9.165
				c-0.663,0.473-16.305,11.826-13.059,38.565L134.477,90.553z"/>
		</g>
	</g>
	<path fill="#436E12" d="M14.835,42.872c0,0,9.477,65.299,74.159,65.299c56.234,0,51.911-20.806,51.911-20.806
		s5.978-21.423-57.678-21.423C19.572,65.946,14.835,42.872,14.835,42.872z"/>
	
		<linearGradient id="SVGID_3_" gradientUnits="userSpaceOnUse" x1="-405.3867" y1="746.3271" x2="-296.5518" y2="746.3271" gradientTransform="matrix(1 0 0 1 428.7998 -665.9209)">
		<stop  offset="0" style="stop-color:#FFFFFF;stop-opacity:0.55"/>
		<stop  offset="0.0596" style="stop-color:#FFFFFF;stop-opacity:0.5172"/>
		<stop  offset="1" style="stop-color:#FFFFFF;stop-opacity:0"/>
	</linearGradient>
	<path fill="url(#SVGID_3_)" d="M23.413,57.197c0,0,10.312,46.418,64.901,46.418c47.458,0,43.808-17.558,43.808-17.558
		s5.041-18.08-48.675-18.08C29.73,67.978,23.413,57.197,23.413,57.197z"/>
</g>
</svg>
