<?xml version="1.0" encoding="utf-8"?>
<!-- Generator: Adobe Illustrator 15.0.2, SVG Export Plug-In . SVG Version: 6.00 Build 0)  -->
<!DOCTYPE svg PUBLIC "-//W3C//DTD SVG 1.1//EN" "http://www.w3.org/Graphics/SVG/1.1/DTD/svg11.dtd">
<svg version="1.1" id="Calque_1" xmlns="http://www.w3.org/2000/svg" xmlns:xlink="http://www.w3.org/1999/xlink" x="0px" y="0px"
	 width="280px" height="175px" viewBox="0 0 280 175" enable-background="new 0 0 280 175" xml:space="preserve">
<g>
	
		<linearGradient id="SVGID_1_" gradientUnits="userSpaceOnUse" x1="-130.7793" y1="229.1533" x2="-18.6898" y2="117.0639" gradientTransform="matrix(1 0 0 -1 214.3999 267.0391)">
		<stop  offset="0" style="stop-color:#FCC71F"/>
		<stop  offset="1" style="stop-color:#FC7826"/>
	</linearGradient>
	<circle fill="url(#SVGID_1_)" cx="140" cy="94.265" r="80.735"/>
	
		<linearGradient id="SVGID_2_" gradientUnits="userSpaceOnUse" x1="-130.7793" y1="229.1533" x2="-18.6898" y2="117.0639" gradientTransform="matrix(1 0 0 -1 214.3999 267.0391)">
		<stop  offset="0" style="stop-color:#FCC71F"/>
		<stop  offset="0.2415" style="stop-color:#FAC51F"/>
		<stop  offset="0.3788" style="stop-color:#F1BF1E"/>
		<stop  offset="0.4901" style="stop-color:#E3B41C"/>
		<stop  offset="0.5875" style="stop-color:#D0A41A"/>
		<stop  offset="0.6756" style="stop-color:#B69016"/>
		<stop  offset="0.7573" style="stop-color:#967712"/>
		<stop  offset="0.8338" style="stop-color:#71590E"/>
		<stop  offset="0.9064" style="stop-color:#453709"/>
		<stop  offset="0.9733" style="stop-color:#151103"/>
		<stop  offset="1" style="stop-color:#000000"/>
	</linearGradient>
	<circle opacity="0.14" fill="url(#SVGID_2_)" enable-background="new    " cx="140" cy="94.265" r="80.735"/>
	<g>
		<path fill="#507700" d="M137.899,27.814c-0.145,0-0.291-0.007-0.438-0.026c-1.973-0.238-3.379-2.026-3.151-3.995
			c0.041-0.382,0.81-8.535-6.014-16.116c-1.333-1.481-1.212-3.762,0.269-5.097c1.48-1.331,3.762-1.212,5.097,0.27
			c9.112,10.123,7.872,21.319,7.815,21.791C141.255,26.472,139.698,27.814,137.899,27.814z"/>
	</g>
	<path fill="#507700" d="M149.472,29.994c0,0-7.329-5.751-2.143-12.063c0,0-8.142,5.411-9.372-2.031c0,0-0.89,5.638-8.67,3.495
		c0,0,9.026,4.57,0.802,9.318c0,0,2.97,2.329,9.291-3.342C139.38,25.372,140.45,28.979,149.472,29.994z"/>
	<path fill="#507700" d="M67.947,20.071c0,0,14.32-20.071,32.474-20.071c18.155,0,34.047,24.205,34.047,24.205
		s-4.723,12.103-20.964,12.103C97.264,36.308,88.808,19.17,67.947,20.071z"/>
	
		<linearGradient id="SVGID_3_" gradientUnits="userSpaceOnUse" x1="-147.4673" y1="164.4297" x2="-84.369" y2="164.4297" gradientTransform="matrix(1 0 0 -1 214.3999 267.0391)">
		<stop  offset="0" style="stop-color:#FFFFFF;stop-opacity:0.55"/>
		<stop  offset="1" style="stop-color:#FFFFFF;stop-opacity:0"/>
	</linearGradient>
	<path fill="url(#SVGID_3_)" d="M93.093,36.308c0,0-28.416,17.365-28.416,61.566c0,44.201,41.045,71.037,74.646,71.037
		s105.125-41.74,28.616-66.301c-60.414-19.395-58.609-61.115-58.609-61.115S100.946,40.843,93.093,36.308z"/>
	
		<linearGradient id="SVGID_4_" gradientUnits="userSpaceOnUse" x1="-140.0249" y1="252.6055" x2="-87.2554" y2="252.6055" gradientTransform="matrix(1 0 0 -1 214.3999 267.0391)">
		<stop  offset="0" style="stop-color:#FFFFFF;stop-opacity:0.55"/>
		<stop  offset="0.0596" style="stop-color:#FFFFFF;stop-opacity:0.5172"/>
		<stop  offset="1" style="stop-color:#FFFFFF;stop-opacity:0"/>
	</linearGradient>
	<path fill="url(#SVGID_4_)" d="M74.375,16.238c0,0,10.486-13.079,27.174-13.079c16.689,0,25.595,16.801,25.595,16.801
		s-5.073,5.75-15.446,5.75c-10.375,0-19.743-9.345-26.56-9.345C78.32,16.365,74.375,16.238,74.375,16.238z"/>
</g>
</svg>
