<?xml version="1.0" encoding="utf-8"?>
<!-- Generator: Adobe Illustrator 15.0.2, SVG Export Plug-In . SVG Version: 6.00 Build 0)  -->
<!DOCTYPE svg PUBLIC "-//W3C//DTD SVG 1.1//EN" "http://www.w3.org/Graphics/SVG/1.1/DTD/svg11.dtd">
<svg version="1.1" id="Calque_1" xmlns="http://www.w3.org/2000/svg" xmlns:xlink="http://www.w3.org/1999/xlink" x="0px" y="0px"
	 width="139.982px" height="139.982px" viewBox="0 0 139.982 139.982" enable-background="new 0 0 139.982 139.982"
	 xml:space="preserve">
<g>
	<path fill="none" stroke="#5C8F0C" stroke-width="2.8338" stroke-miterlimit="10" d="M93.536,68.38
		c-3.878-6.941-14.702-29.335-7.446-51.892c0,0-38.86,1.571-49.104,57.731"/>
	
		<linearGradient id="SVGID_1_" gradientUnits="userSpaceOnUse" x1="-86.7102" y1="904.8181" x2="-32.8088" y2="904.8181" gradientTransform="matrix(1 0 0 1 172.7998 -876.9199)">
		<stop  offset="0" style="stop-color:#5C8F0C"/>
		<stop  offset="0.35" style="stop-color:#5E900E"/>
		<stop  offset="0.549" style="stop-color:#679213"/>
		<stop  offset="0.7101" style="stop-color:#75961D"/>
		<stop  offset="0.851" style="stop-color:#889C2B"/>
		<stop  offset="0.9774" style="stop-color:#A2A33C"/>
		<stop  offset="1" style="stop-color:#A7A540"/>
	</linearGradient>
	<path fill="url(#SVGID_1_)" d="M86.09,16.49c0,0,4.575-5.373,15.557-5.373c10.98,0,30.285,24.176,38.345,24.176
		c0,0-9.032,9.387-20.812,9.387C101.735,44.679,86.09,27.796,86.09,16.49z"/>
	
		<linearGradient id="SVGID_2_" gradientUnits="userSpaceOnUse" x1="-38.7063" y1="917.7371" x2="-79.4424" y2="900.7343" gradientTransform="matrix(1 0 0 1 172.7998 -876.9199)">
		<stop  offset="0" style="stop-color:#FFFFFF;stop-opacity:0.55"/>
		<stop  offset="0.0596" style="stop-color:#FFFFFF;stop-opacity:0.5172"/>
		<stop  offset="1" style="stop-color:#FFFFFF;stop-opacity:0"/>
	</linearGradient>
	<path fill="url(#SVGID_2_)" d="M136.094,36.266c0,0-6.731,6.199-17.357,6.199c-10.628,0-26.566-11.158-26.566-22.493
		s18.063,2.833,24.262,8.147C122.634,33.432,128.833,36.266,136.094,36.266z"/>
	<g>
		
			<linearGradient id="SVGID_3_" gradientUnits="userSpaceOnUse" x1="-120.9929" y1="957.658" x2="-160.664" y2="997.3291" gradientTransform="matrix(1 0 0 1 172.7998 -876.9199)">
			<stop  offset="0" style="stop-color:#E63468"/>
			<stop  offset="0.3166" style="stop-color:#E43366"/>
			<stop  offset="0.4967" style="stop-color:#DD305D"/>
			<stop  offset="0.6425" style="stop-color:#D22A4F"/>
			<stop  offset="0.7699" style="stop-color:#C2213C"/>
			<stop  offset="0.8849" style="stop-color:#AD1622"/>
			<stop  offset="0.9904" style="stop-color:#940903"/>
			<stop  offset="1" style="stop-color:#910800"/>
		</linearGradient>
		<path fill="url(#SVGID_3_)" d="M42.965,75.837c0.009,0.071,0.042,0.142,0.032,0.213c-0.184,1.213-3.347,1.74-7.067,1.181
			c-3.719-0.561-6.585-2.002-6.402-3.214c0.018-0.119,0.086-0.225,0.158-0.33C13.921,74.149,0.962,85.047,0.043,99.244
			c-0.985,15.201,12.202,28.432,29.453,29.546c17.25,1.119,32.03-10.3,33.017-25.503C63.296,91.17,55.071,80.312,42.965,75.837z"/>
		<path fill="#5C8F0C" d="M35.929,77.229c3.721,0.561,6.883,0.031,7.067-1.182c0.01-0.069-0.022-0.14-0.032-0.211
			c-3.08-1.139-6.406-1.871-9.905-2.096c-1.137-0.073-2.263-0.093-3.375-0.059c-0.073,0.104-0.141,0.212-0.158,0.33
			C29.344,75.228,32.211,76.669,35.929,77.229z"/>
	</g>
	<g>
		
			<linearGradient id="SVGID_4_" gradientUnits="userSpaceOnUse" x1="-354.1829" y1="1278.4197" x2="-393.8533" y2="1318.0901" gradientTransform="matrix(0.9239 -0.3826 0.3826 0.9239 -47.2417 -1250.9348)">
			<stop  offset="0" style="stop-color:#E63468"/>
			<stop  offset="0.3166" style="stop-color:#E43366"/>
			<stop  offset="0.4967" style="stop-color:#DD305D"/>
			<stop  offset="0.6425" style="stop-color:#D22A4F"/>
			<stop  offset="0.7699" style="stop-color:#C2213C"/>
			<stop  offset="0.8849" style="stop-color:#AD1622"/>
			<stop  offset="0.9904" style="stop-color:#940903"/>
			<stop  offset="1" style="stop-color:#910800"/>
		</linearGradient>
		<path fill="url(#SVGID_4_)" d="M133.172,82.446c-4.315-12.682-18.173-19.752-32.581-17.489c0.209,0.105,0.373,0.233,0.441,0.409
			c0.448,1.153-2.558,3.397-6.716,5.013c-4.16,1.615-7.892,1.99-8.339,0.836c-0.051-0.13-0.053-0.271-0.02-0.426
			c-10.742,7.438-16.003,20.205-12.051,31.818c4.905,14.421,22.151,21.603,38.515,16.032
			C128.788,113.075,138.075,96.869,133.172,82.446z"/>
		<path fill="#5C8F0C" d="M85.977,71.216c0.447,1.152,4.179,0.778,8.339-0.835c4.158-1.616,7.164-3.86,6.716-5.013
			c-0.066-0.175-0.232-0.303-0.441-0.409c-1.977,0.31-3.962,0.788-5.936,1.459c-3.185,1.083-6.098,2.575-8.697,4.374
			C85.925,70.944,85.927,71.087,85.977,71.216z"/>
	</g>
</g>
</svg>
