<?xml version="1.0" encoding="utf-8"?>
<!-- Generator: Adobe Illustrator 15.0.2, SVG Export Plug-In . SVG Version: 6.00 Build 0)  -->
<!DOCTYPE svg PUBLIC "-//W3C//DTD SVG 1.1//EN" "http://www.w3.org/Graphics/SVG/1.1/DTD/svg11.dtd">
<svg version="1.1" id="Calque_1" xmlns="http://www.w3.org/2000/svg" xmlns:xlink="http://www.w3.org/1999/xlink" x="0px" y="0px"
	 width="347px" height="200px" viewBox="0 0 347 200" enable-background="new 0 0 347 200" xml:space="preserve">
<g>
	<g>
		
			<linearGradient id="SVGID_1_" gradientUnits="userSpaceOnUse" x1="-288.4514" y1="854.1006" x2="-392.3539" y2="750.198" gradientTransform="matrix(1 0 0 1 428.7998 -700.9395)">
			<stop  offset="0" style="stop-color:#89AD03"/>
			<stop  offset="1" style="stop-color:#BBD75E"/>
		</linearGradient>
		<path fill="url(#SVGID_1_)" d="M119.291,43.633c-20.424,0-2.552,5.363-30.89,5.363c-28.338,0-10.467-5.363-30.891-5.363
			c-20.423,0-46.208,16.341-46.208,48.25c0,31.912,27.572,85.778,64.078,85.778c0,0,4.852-1.278,13.021-1.278
			c8.168,0,13.021,1.278,13.021,1.278c36.506,0,64.078-53.866,64.078-85.778C165.5,59.971,139.716,43.633,119.291,43.633z"/>
		
			<linearGradient id="SVGID_2_" gradientUnits="userSpaceOnUse" x1="-397.4421" y1="835.8887" x2="-316.2595" y2="768.4918" gradientTransform="matrix(1 0 0 1 428.7998 -700.9395)">
			<stop  offset="0" style="stop-color:#FFFFFF;stop-opacity:0.55"/>
			<stop  offset="1" style="stop-color:#FFFFFF;stop-opacity:0"/>
		</linearGradient>
		<path fill="url(#SVGID_2_)" d="M32.173,58.186c0,0-14.551,16.466-14.551,34.462c0,18,18.381,80.036,59.93,80.036
			c0,0-18.571-15.317-18.571-49.4S77.424,85.95,88.403,85.95c10.978,0,13.274,3.254,20.36,3.254c7.086,0,24.124-0.19,24.124-24.7
			c0-24.507-20.105-15.508-20.105-15.508s-19.913,15.892-49.59,15.892C33.513,64.888,32.173,58.186,32.173,58.186z"/>
		<g>
			<g>
				<path fill="#593503" d="M85.359,49.364c-2.252-18.568,9.311-26.687,9.803-27.025l3.471,5.049
					c-0.366,0.26-8.979,6.511-7.191,21.237L85.359,49.364z"/>
			</g>
		</g>
		<path fill="#436E12" d="M19.472,23.106c0,0,5.218,35.959,40.839,35.959c30.968,0,28.589-11.456,28.589-11.456
			s3.292-11.799-31.763-11.799C22.081,35.813,19.472,23.106,19.472,23.106z"/>
		
			<linearGradient id="SVGID_3_" gradientUnits="userSpaceOnUse" x1="-404.6038" y1="744.7168" x2="-344.6692" y2="744.7168" gradientTransform="matrix(1 0 0 1 428.7998 -700.9395)">
			<stop  offset="0" style="stop-color:#FFFFFF;stop-opacity:0.55"/>
			<stop  offset="0.0596" style="stop-color:#FFFFFF;stop-opacity:0.5172"/>
			<stop  offset="1" style="stop-color:#FFFFFF;stop-opacity:0"/>
		</linearGradient>
		<path fill="url(#SVGID_3_)" d="M24.196,30.996c0,0,5.678,25.563,35.74,25.563c26.137,0,24.125-9.669,24.125-9.669
			s2.777-9.957-26.805-9.957C27.674,36.933,24.196,30.996,24.196,30.996z"/>
	</g>
	<g>
		
			<linearGradient id="SVGID_4_" gradientUnits="userSpaceOnUse" x1="-214.7971" y1="756.9053" x2="-115.3127" y2="856.3896" gradientTransform="matrix(1 0 0 1 428.7998 -700.9395)">
			<stop  offset="0" style="stop-color:#FCC71F"/>
			<stop  offset="1" style="stop-color:#FC7826"/>
		</linearGradient>
		<circle fill="url(#SVGID_4_)" cx="264.041" cy="106.005" r="71.656"/>
		
			<linearGradient id="SVGID_5_" gradientUnits="userSpaceOnUse" x1="-214.7971" y1="756.9053" x2="-115.3127" y2="856.3896" gradientTransform="matrix(1 0 0 1 428.7998 -700.9395)">
			<stop  offset="0" style="stop-color:#FCC71F"/>
			<stop  offset="0.2415" style="stop-color:#FAC51F"/>
			<stop  offset="0.3788" style="stop-color:#F1BF1E"/>
			<stop  offset="0.4901" style="stop-color:#E3B41C"/>
			<stop  offset="0.5875" style="stop-color:#D0A41A"/>
			<stop  offset="0.6756" style="stop-color:#B69016"/>
			<stop  offset="0.7573" style="stop-color:#967712"/>
			<stop  offset="0.8338" style="stop-color:#71590E"/>
			<stop  offset="0.9064" style="stop-color:#453709"/>
			<stop  offset="0.9733" style="stop-color:#151103"/>
			<stop  offset="1" style="stop-color:#000000"/>
		</linearGradient>
		<circle opacity="0.14" fill="url(#SVGID_5_)" enable-background="new    " cx="264.041" cy="106.005" r="71.656"/>
		<g>
			<path fill="#507700" d="M262.176,47.025c-0.127,0-0.258-0.007-0.39-0.023c-1.751-0.212-2.999-1.798-2.796-3.546
				c0.035-0.34,0.717-7.576-5.34-14.305c-1.182-1.314-1.075-3.339,0.238-4.522c1.315-1.182,3.341-1.077,4.523,0.239
				c8.088,8.985,6.987,18.922,6.938,19.34C265.155,45.834,263.774,47.025,262.176,47.025z"/>
		</g>
		<path fill="#507700" d="M272.448,48.96c0,0-6.505-5.105-1.901-10.708c0,0-7.228,4.803-8.317-1.803c0,0-0.79,5.003-7.697,3.102
			c0,0,8.013,4.057,0.713,8.271c0,0,2.637,2.067,8.246-2.965C263.49,44.857,264.441,48.06,272.448,48.96z"/>
		<path fill="#507700" d="M200.09,40.153c0,0,12.71-17.813,28.821-17.813c16.113,0,30.219,21.483,30.219,21.483
			s-4.192,10.741-18.607,10.741C226.111,54.564,218.605,39.354,200.09,40.153z"/>
		
			<linearGradient id="SVGID_6_" gradientUnits="userSpaceOnUse" x1="-229.6096" y1="814.3496" x2="-173.607" y2="814.3496" gradientTransform="matrix(1 0 0 1 428.7998 -700.9395)">
			<stop  offset="0" style="stop-color:#FFFFFF;stop-opacity:0.55"/>
			<stop  offset="1" style="stop-color:#FFFFFF;stop-opacity:0"/>
		</linearGradient>
		<path fill="url(#SVGID_6_)" d="M222.408,54.564c0,0-25.219,15.413-25.219,54.642c0,39.231,36.43,63.05,66.252,63.05
			c29.823,0,93.304-37.046,25.399-58.846c-53.623-17.213-52.021-54.242-52.021-54.242S229.378,58.589,222.408,54.564z"/>
		
			<linearGradient id="SVGID_7_" gradientUnits="userSpaceOnUse" x1="-223.0046" y1="736.0898" x2="-176.1687" y2="736.0898" gradientTransform="matrix(1 0 0 1 428.7998 -700.9395)">
			<stop  offset="0" style="stop-color:#FFFFFF;stop-opacity:0.55"/>
			<stop  offset="0.0596" style="stop-color:#FFFFFF;stop-opacity:0.5172"/>
			<stop  offset="1" style="stop-color:#FFFFFF;stop-opacity:0"/>
		</linearGradient>
		<path fill="url(#SVGID_7_)" d="M205.795,36.751c0,0,9.307-11.608,24.119-11.608s22.717,14.91,22.717,14.91
			s-4.503,5.105-13.709,5.105c-9.209,0-17.521-8.295-23.573-8.295C209.298,36.864,205.795,36.751,205.795,36.751z"/>
	</g>
	<g>
		<path fill="none" stroke="#5C8F0C" stroke-width="3.1439" stroke-miterlimit="10" d="M159.008,110.555
			c-4.302-7.7-16.311-32.545-8.261-57.57c0,0-43.112,1.743-54.478,64.049"/>
		
			<linearGradient id="SVGID_8_" gradientUnits="userSpaceOnUse" x1="-236.4534" y1="-650.5234" x2="-176.6526" y2="-650.5234" gradientTransform="matrix(1 0 0 -1 387.1997 -584.8799)">
			<stop  offset="0" style="stop-color:#5C8F0C"/>
			<stop  offset="0.35" style="stop-color:#5E900E"/>
			<stop  offset="0.549" style="stop-color:#679213"/>
			<stop  offset="0.7101" style="stop-color:#75961D"/>
			<stop  offset="0.851" style="stop-color:#889C2B"/>
			<stop  offset="0.9774" style="stop-color:#A2A33C"/>
			<stop  offset="1" style="stop-color:#A7A540"/>
		</linearGradient>
		<path fill="url(#SVGID_8_)" d="M150.746,52.986c0,0,5.076-5.961,17.261-5.961c12.181,0,33.6,26.821,42.54,26.821
			c0,0-10.02,10.416-23.088,10.416C168.105,84.261,150.746,65.529,150.746,52.986z"/>
		
			<linearGradient id="SVGID_9_" gradientUnits="userSpaceOnUse" x1="-183.1946" y1="-664.8564" x2="-228.3899" y2="-645.9924" gradientTransform="matrix(1 0 0 -1 387.1997 -584.8799)">
			<stop  offset="0" style="stop-color:#FFFFFF;stop-opacity:0.55"/>
			<stop  offset="0.0596" style="stop-color:#FFFFFF;stop-opacity:0.5172"/>
			<stop  offset="1" style="stop-color:#FFFFFF;stop-opacity:0"/>
		</linearGradient>
		<path fill="url(#SVGID_9_)" d="M206.225,74.927c0,0-7.47,6.876-19.258,6.876c-11.792,0-29.474-12.378-29.474-24.954
			c0-12.576,20.04,3.143,26.917,9.038C191.29,71.783,198.168,74.927,206.225,74.927z"/>
		<g>
			
				<linearGradient id="SVGID_10_" gradientUnits="userSpaceOnUse" x1="-274.488" y1="-709.146" x2="-318.5004" y2="-753.1583" gradientTransform="matrix(1 0 0 -1 387.1997 -584.8799)">
				<stop  offset="0" style="stop-color:#E63468"/>
				<stop  offset="0.3166" style="stop-color:#E43366"/>
				<stop  offset="0.4967" style="stop-color:#DD305D"/>
				<stop  offset="0.6425" style="stop-color:#D22A4F"/>
				<stop  offset="0.7699" style="stop-color:#C2213C"/>
				<stop  offset="0.8849" style="stop-color:#AD1622"/>
				<stop  offset="0.9904" style="stop-color:#940903"/>
				<stop  offset="1" style="stop-color:#910800"/>
			</linearGradient>
			<path fill="url(#SVGID_10_)" d="M102.902,118.828c0.011,0.079,0.047,0.158,0.036,0.236c-0.204,1.347-3.713,1.931-7.84,1.311
				c-4.127-0.623-7.306-2.221-7.103-3.565c0.02-0.132,0.095-0.25,0.175-0.366c-17.491,0.513-31.868,12.603-32.888,28.354
				c-1.092,16.865,13.538,31.543,32.677,32.779c19.138,1.242,35.536-11.427,36.631-28.294
				C125.458,135.839,116.333,123.793,102.902,118.828z"/>
			<path fill="#5C8F0C" d="M95.097,120.373c4.128,0.622,7.636,0.033,7.839-1.313c0.011-0.075-0.023-0.154-0.036-0.233
				c-3.417-1.264-7.106-2.076-10.988-2.325c-1.262-0.081-2.511-0.103-3.744-0.065c-0.082,0.115-0.157,0.235-0.176,0.365
				C87.791,118.153,90.971,119.751,95.097,120.373z"/>
		</g>
		<g>
			
				<linearGradient id="SVGID_11_" gradientUnits="userSpaceOnUse" x1="-653.9963" y1="-1073.9214" x2="-698.0087" y2="-1117.9337" gradientTransform="matrix(0.9239 -0.3826 -0.3826 -0.9239 375.7789 -1134.824)">
				<stop  offset="0" style="stop-color:#E63468"/>
				<stop  offset="0.3166" style="stop-color:#E43366"/>
				<stop  offset="0.4967" style="stop-color:#DD305D"/>
				<stop  offset="0.6425" style="stop-color:#D22A4F"/>
				<stop  offset="0.7699" style="stop-color:#C2213C"/>
				<stop  offset="0.8849" style="stop-color:#AD1622"/>
				<stop  offset="0.9904" style="stop-color:#940903"/>
				<stop  offset="1" style="stop-color:#910800"/>
			</linearGradient>
			<path fill="url(#SVGID_11_)" d="M202.981,126.161c-4.787-14.07-20.161-21.914-36.146-19.403c0.231,0.116,0.414,0.259,0.489,0.453
				c0.497,1.28-2.838,3.77-7.451,5.562c-4.615,1.792-8.756,2.208-9.251,0.928c-0.058-0.145-0.06-0.3-0.023-0.473
				c-11.917,8.253-17.754,22.417-13.37,35.301c5.442,15.999,24.576,23.967,42.73,17.787
				C198.118,160.142,208.422,142.162,202.981,126.161z"/>
			<path fill="#5C8F0C" d="M150.622,113.701c0.495,1.278,4.636,0.863,9.251-0.927c4.613-1.792,7.948-4.281,7.451-5.561
				c-0.073-0.194-0.258-0.336-0.489-0.454c-2.193,0.345-4.397,0.874-6.585,1.618c-3.534,1.202-6.766,2.857-9.649,4.854
				C150.563,113.4,150.567,113.559,150.622,113.701z"/>
		</g>
	</g>
</g>
</svg>
