<?xml version="1.0" encoding="utf-8"?>
<!-- Generator: Adobe Illustrator 15.0.2, SVG Export Plug-In . SVG Version: 6.00 Build 0)  -->
<!DOCTYPE svg PUBLIC "-//W3C//DTD SVG 1.1//EN" "http://www.w3.org/Graphics/SVG/1.1/DTD/svg11.dtd">
<svg version="1.1" id="Calque_1" xmlns="http://www.w3.org/2000/svg" xmlns:xlink="http://www.w3.org/1999/xlink" x="0px" y="0px"
	 width="150px" height="220px" viewBox="0 0 150 220" enable-background="new 0 0 150 220" xml:space="preserve">
<g>
	<path fill="none" stroke="#5C8F0C" stroke-width="3.0362" stroke-miterlimit="10" d="M100.227,108.274
		c-4.154-7.437-15.752-31.43-7.978-55.598c0,0-41.636,1.683-52.612,61.854"/>
	
		<linearGradient id="SVGID_1_" gradientUnits="userSpaceOnUse" x1="133.8496" y1="-8.8604" x2="191.5996" y2="-8.8604" gradientTransform="matrix(1 0 0 -1 -41.6001 56.04)">
		<stop  offset="0" style="stop-color:#5C8F0C"/>
		<stop  offset="0.35" style="stop-color:#5E900E"/>
		<stop  offset="0.549" style="stop-color:#679213"/>
		<stop  offset="0.7101" style="stop-color:#75961D"/>
		<stop  offset="0.851" style="stop-color:#889C2B"/>
		<stop  offset="0.9774" style="stop-color:#A2A33C"/>
		<stop  offset="1" style="stop-color:#A7A540"/>
	</linearGradient>
	<path fill="url(#SVGID_1_)" d="M92.249,52.677c0,0,4.901-5.757,16.667-5.757S141.365,72.823,150,72.823
		c0,0-9.678,10.058-22.298,10.058C109.012,82.88,92.249,64.791,92.249,52.677z"/>
	
		<linearGradient id="SVGID_2_" gradientUnits="userSpaceOnUse" x1="185.2803" y1="-22.7002" x2="141.6347" y2="-4.483" gradientTransform="matrix(1 0 0 -1 -41.6001 56.04)">
		<stop  offset="0" style="stop-color:#FFFFFF;stop-opacity:0.55"/>
		<stop  offset="0.0596" style="stop-color:#FFFFFF;stop-opacity:0.5172"/>
		<stop  offset="1" style="stop-color:#FFFFFF;stop-opacity:0"/>
	</linearGradient>
	<path fill="url(#SVGID_2_)" d="M145.825,73.866c0,0-7.212,6.642-18.597,6.642c-11.387,0-28.465-11.955-28.465-24.1
		c0-12.145,19.354,3.036,25.996,8.729C131.402,70.83,138.045,73.866,145.825,73.866z"/>
	<g>
		
			<linearGradient id="SVGID_3_" gradientUnits="userSpaceOnUse" x1="97.1162" y1="-65.4736" x2="54.6116" y2="-107.9783" gradientTransform="matrix(1 0 0 -1 -41.6001 56.04)">
			<stop  offset="0" style="stop-color:#E63468"/>
			<stop  offset="0.3166" style="stop-color:#E43366"/>
			<stop  offset="0.4967" style="stop-color:#DD305D"/>
			<stop  offset="0.6425" style="stop-color:#D22A4F"/>
			<stop  offset="0.7699" style="stop-color:#C2213C"/>
			<stop  offset="0.8849" style="stop-color:#AD1622"/>
			<stop  offset="0.9904" style="stop-color:#940903"/>
			<stop  offset="1" style="stop-color:#910800"/>
		</linearGradient>
		<path fill="url(#SVGID_3_)" d="M46.043,116.264c0.01,0.076,0.045,0.151,0.034,0.227c-0.197,1.3-3.586,1.865-7.572,1.266
			c-3.985-0.601-7.056-2.145-6.86-3.445c0.019-0.127,0.093-0.24,0.17-0.353c-16.89,0.496-30.775,12.172-31.76,27.384
			C-1,157.629,13.129,171.805,31.612,172.999c18.482,1.199,34.318-11.036,35.375-27.325
			C67.827,132.691,59.014,121.059,46.043,116.264z"/>
		<path fill="#5C8F0C" d="M38.505,117.755c3.986,0.601,7.375,0.034,7.572-1.266c0.011-0.074-0.024-0.149-0.034-0.226
			c-3.3-1.22-6.864-2.004-10.613-2.246c-1.218-0.078-2.424-0.098-3.615-0.062c-0.078,0.112-0.151,0.226-0.17,0.353
			C31.449,115.611,34.521,117.154,38.505,117.755z"/>
	</g>
	<g>
		
			<linearGradient id="SVGID_4_" gradientUnits="userSpaceOnUse" x1="3.9727" y1="-325.0474" x2="-38.5314" y2="-367.5515" gradientTransform="matrix(0.9239 -0.3826 -0.3826 -0.9239 -5.1817 -193.3807)">
			<stop  offset="0" style="stop-color:#E63468"/>
			<stop  offset="0.3166" style="stop-color:#E43366"/>
			<stop  offset="0.4967" style="stop-color:#DD305D"/>
			<stop  offset="0.6425" style="stop-color:#D22A4F"/>
			<stop  offset="0.7699" style="stop-color:#C2213C"/>
			<stop  offset="0.8849" style="stop-color:#AD1622"/>
			<stop  offset="0.9904" style="stop-color:#940903"/>
			<stop  offset="1" style="stop-color:#910800"/>
		</linearGradient>
		<path fill="url(#SVGID_4_)" d="M142.693,123.345c-4.623-13.588-19.471-21.164-34.908-18.738c0.224,0.113,0.4,0.25,0.473,0.438
			c0.48,1.235-2.74,3.64-7.195,5.371c-4.457,1.73-8.455,2.132-8.935,0.896c-0.054-0.139-0.055-0.291-0.021-0.457
			c-11.51,7.971-17.146,21.649-12.912,34.092c5.256,15.451,23.734,23.146,41.267,17.177
			C137.997,156.161,147.947,138.798,142.693,123.345z"/>
		<path fill="#5C8F0C" d="M92.128,111.313c0.479,1.234,4.478,0.834,8.935-0.896c4.455-1.731,7.676-4.136,7.195-5.371
			c-0.07-0.187-0.249-0.325-0.473-0.438c-2.117,0.332-4.245,0.844-6.359,1.563c-3.412,1.161-6.533,2.759-9.318,4.686
			C92.072,111.021,92.074,111.174,92.128,111.313z"/>
	</g>
</g>
</svg>
