<?xml version="1.0" encoding="utf-8"?>
<!-- Generator: Adobe Illustrator 15.0.2, SVG Export Plug-In . SVG Version: 6.00 Build 0)  -->
<!DOCTYPE svg PUBLIC "-//W3C//DTD SVG 1.1//EN" "http://www.w3.org/Graphics/SVG/1.1/DTD/svg11.dtd">
<svg version="1.1" id="Calque_1" xmlns="http://www.w3.org/2000/svg" xmlns:xlink="http://www.w3.org/1999/xlink" x="0px" y="0px"
	 width="369px" height="384px" viewBox="0 0 369 384" enable-background="new 0 0 369 384" xml:space="preserve">
<g>
	<g>
		
			<linearGradient id="SVGID_1_" gradientUnits="userSpaceOnUse" x1="-274.1809" y1="940.8564" x2="-367.8346" y2="847.2026" gradientTransform="matrix(1 0 0 1 428.7998 -700.9395)">
			<stop  offset="0" style="stop-color:#89AD03"/>
			<stop  offset="1" style="stop-color:#BBD75E"/>
		</linearGradient>
		<path fill="url(#SVGID_1_)" d="M135.639,141.193c-18.409,0-2.301,4.834-27.843,4.834c-25.543,0-9.435-4.834-27.844-4.834
			c-18.408,0-41.649,14.729-41.649,43.49C38.303,213.447,63.156,262,96.06,262c0,0,4.373-1.152,11.736-1.152
			c7.362,0,11.736,1.152,11.736,1.152c32.904,0,57.757-48.553,57.757-77.316S154.048,141.193,135.639,141.193z"/>
		
			<linearGradient id="SVGID_2_" gradientUnits="userSpaceOnUse" x1="-372.4207" y1="924.4404" x2="-299.2463" y2="863.6919" gradientTransform="matrix(1 0 0 1 428.7998 -700.9395)">
			<stop  offset="0" style="stop-color:#FFFFFF;stop-opacity:0.55"/>
			<stop  offset="1" style="stop-color:#FFFFFF;stop-opacity:0"/>
		</linearGradient>
		<path fill="url(#SVGID_2_)" d="M57.115,154.311c0,0-13.116,14.842-13.116,31.063c0,16.225,16.568,72.141,54.019,72.141
			c0,0-16.739-13.807-16.739-44.527s16.624-33.65,26.52-33.65c9.895,0,11.965,2.934,18.352,2.934s21.744-0.172,21.744-22.264
			c0-22.09-18.122-13.979-18.122-13.979s-17.948,14.324-44.698,14.324S57.115,154.311,57.115,154.311z"/>
		<g>
			<g>
				<path fill="#593503" d="M105.054,146.359c-2.03-16.736,8.393-24.055,8.836-24.359l3.129,4.551
					c-0.33,0.234-8.094,5.869-6.481,19.143L105.054,146.359z"/>
			</g>
		</g>
		<path fill="#436E12" d="M45.666,122.691c0,0,4.703,32.412,36.811,32.412c27.913,0,25.769-10.326,25.769-10.326
			s2.967-10.635-28.63-10.635C48.018,134.145,45.666,122.691,45.666,122.691z"/>
		
			<linearGradient id="SVGID_3_" gradientUnits="userSpaceOnUse" x1="-378.8757" y1="842.2627" x2="-324.8533" y2="842.2627" gradientTransform="matrix(1 0 0 1 428.7998 -700.9395)">
			<stop  offset="0" style="stop-color:#FFFFFF;stop-opacity:0.55"/>
			<stop  offset="0.0596" style="stop-color:#FFFFFF;stop-opacity:0.5172"/>
			<stop  offset="1" style="stop-color:#FFFFFF;stop-opacity:0"/>
		</linearGradient>
		<path fill="url(#SVGID_3_)" d="M49.924,129.803c0,0,5.118,23.041,32.215,23.041c23.559,0,21.745-8.715,21.745-8.715
			s2.503-8.975-24.161-8.975S49.924,129.803,49.924,129.803z"/>
	</g>
	<g>
		
			<linearGradient id="SVGID_4_" gradientUnits="userSpaceOnUse" x1="-207.7922" y1="853.249" x2="-118.1212" y2="942.9199" gradientTransform="matrix(1 0 0 1 428.7998 -700.9395)">
			<stop  offset="0" style="stop-color:#FCC71F"/>
			<stop  offset="1" style="stop-color:#FC7826"/>
		</linearGradient>
		<circle fill="url(#SVGID_4_)" cx="266.11" cy="197.412" r="64.588"/>
		
			<linearGradient id="SVGID_5_" gradientUnits="userSpaceOnUse" x1="-207.7922" y1="853.249" x2="-118.1212" y2="942.9199" gradientTransform="matrix(1 0 0 1 428.7998 -700.9395)">
			<stop  offset="0" style="stop-color:#FCC71F"/>
			<stop  offset="0.2415" style="stop-color:#FAC51F"/>
			<stop  offset="0.3788" style="stop-color:#F1BF1E"/>
			<stop  offset="0.4901" style="stop-color:#E3B41C"/>
			<stop  offset="0.5875" style="stop-color:#D0A41A"/>
			<stop  offset="0.6756" style="stop-color:#B69016"/>
			<stop  offset="0.7573" style="stop-color:#967712"/>
			<stop  offset="0.8338" style="stop-color:#71590E"/>
			<stop  offset="0.9064" style="stop-color:#453709"/>
			<stop  offset="0.9733" style="stop-color:#151103"/>
			<stop  offset="1" style="stop-color:#000000"/>
		</linearGradient>
		<circle opacity="0.14" fill="url(#SVGID_5_)" enable-background="new    " cx="266.11" cy="197.412" r="64.588"/>
		<g>
			<path fill="#507700" d="M264.429,144.251c-0.115,0-0.232-0.006-0.352-0.021c-1.578-0.191-2.703-1.621-2.521-3.196
				c0.032-0.307,0.646-6.828-4.813-12.894c-1.065-1.185-0.97-3.01,0.215-4.076c1.186-1.065,3.011-0.971,4.077,0.215
				c7.29,8.099,6.298,17.056,6.253,17.433C267.114,143.178,265.868,144.251,264.429,144.251z"/>
		</g>
		<path fill="#507700" d="M273.687,145.995c0,0-5.863-4.602-1.714-9.651c0,0-6.515,4.329-7.497-1.625c0,0-0.712,4.51-6.938,2.796
			c0,0,7.222,3.656,0.643,7.455c0,0,2.376,1.863,7.433-2.673C265.614,142.297,266.47,145.184,273.687,145.995z"/>
		<path fill="#507700" d="M208.467,138.057c0,0,11.456-16.057,25.979-16.057c14.523,0,27.237,19.364,27.237,19.364
			s-3.778,9.682-16.771,9.682C231.921,151.046,225.156,137.336,208.467,138.057z"/>
		
			<linearGradient id="SVGID_6_" gradientUnits="userSpaceOnUse" x1="-221.1438" y1="905.0254" x2="-170.6655" y2="905.0254" gradientTransform="matrix(1 0 0 1 428.7998 -700.9395)">
			<stop  offset="0" style="stop-color:#FFFFFF;stop-opacity:0.55"/>
			<stop  offset="1" style="stop-color:#FFFFFF;stop-opacity:0"/>
		</linearGradient>
		<path fill="url(#SVGID_6_)" d="M228.584,151.046c0,0-22.731,13.893-22.731,49.252c0,35.361,32.836,56.83,59.717,56.83
			s84.1-33.392,22.894-53.041c-48.333-15.515-46.89-48.891-46.89-48.891S234.866,154.674,228.584,151.046z"/>
		
			<linearGradient id="SVGID_7_" gradientUnits="userSpaceOnUse" x1="-215.1902" y1="834.4873" x2="-172.9744" y2="834.4873" gradientTransform="matrix(1 0 0 1 428.7998 -700.9395)">
			<stop  offset="0" style="stop-color:#FFFFFF;stop-opacity:0.55"/>
			<stop  offset="0.0596" style="stop-color:#FFFFFF;stop-opacity:0.5172"/>
			<stop  offset="1" style="stop-color:#FFFFFF;stop-opacity:0"/>
		</linearGradient>
		<path fill="url(#SVGID_7_)" d="M213.61,134.99c0,0,8.389-10.463,21.739-10.463c13.352,0,20.477,13.439,20.477,13.439
			s-4.059,4.602-12.356,4.602c-8.301,0-15.794-7.477-21.248-7.477S213.61,134.99,213.61,134.99z"/>
	</g>
	<g>
		<path fill="none" stroke="#5C8F0C" stroke-width="2.8338" stroke-miterlimit="10" d="M171.437,201.514
			c-3.878-6.94-14.702-29.335-7.446-51.892c0,0-38.859,1.571-49.104,57.73"/>
		
			<linearGradient id="SVGID_8_" gradientUnits="userSpaceOnUse" x1="-223.2087" y1="-561.9126" x2="-169.3069" y2="-561.9126" gradientTransform="matrix(1 0 0 -1 387.1997 -400.8799)">
			<stop  offset="0" style="stop-color:#5C8F0C"/>
			<stop  offset="0.35" style="stop-color:#5E900E"/>
			<stop  offset="0.549" style="stop-color:#679213"/>
			<stop  offset="0.7101" style="stop-color:#75961D"/>
			<stop  offset="0.851" style="stop-color:#889C2B"/>
			<stop  offset="0.9774" style="stop-color:#A2A33C"/>
			<stop  offset="1" style="stop-color:#A7A540"/>
		</linearGradient>
		<path fill="url(#SVGID_8_)" d="M163.991,149.624c0,0,4.575-5.373,15.558-5.373c10.979,0,30.285,24.176,38.344,24.176
			c0,0-9.031,9.388-20.811,9.388C179.637,177.813,163.991,160.93,163.991,149.624z"/>
		
			<linearGradient id="SVGID_9_" gradientUnits="userSpaceOnUse" x1="-175.2043" y1="-574.832" x2="-215.9409" y2="-557.829" gradientTransform="matrix(1 0 0 -1 387.1997 -400.8799)">
			<stop  offset="0" style="stop-color:#FFFFFF;stop-opacity:0.55"/>
			<stop  offset="0.0596" style="stop-color:#FFFFFF;stop-opacity:0.5172"/>
			<stop  offset="1" style="stop-color:#FFFFFF;stop-opacity:0"/>
		</linearGradient>
		<path fill="url(#SVGID_9_)" d="M213.996,169.4c0,0-6.732,6.198-17.357,6.198c-10.629,0-26.567-11.157-26.567-22.492
			s18.063,2.833,24.262,8.146C200.535,166.566,206.735,169.4,213.996,169.4z"/>
		<g>
			
				<linearGradient id="SVGID_10_" gradientUnits="userSpaceOnUse" x1="-257.491" y1="-614.752" x2="-297.1621" y2="-654.423" gradientTransform="matrix(1 0 0 -1 387.1997 -400.8799)">
				<stop  offset="0" style="stop-color:#E63468"/>
				<stop  offset="0.3166" style="stop-color:#E43366"/>
				<stop  offset="0.4967" style="stop-color:#DD305D"/>
				<stop  offset="0.6425" style="stop-color:#D22A4F"/>
				<stop  offset="0.7699" style="stop-color:#C2213C"/>
				<stop  offset="0.8849" style="stop-color:#AD1622"/>
				<stop  offset="0.9904" style="stop-color:#940903"/>
				<stop  offset="1" style="stop-color:#910800"/>
			</linearGradient>
			<path fill="url(#SVGID_10_)" d="M120.866,208.971c0.01,0.071,0.042,0.143,0.032,0.213c-0.184,1.214-3.347,1.74-7.066,1.182
				c-3.72-0.562-6.585-2.002-6.402-3.214c0.018-0.119,0.086-0.226,0.158-0.33c-15.766,0.462-28.725,11.359-29.644,25.557
				c-0.984,15.201,12.202,28.432,29.453,29.546c17.25,1.119,32.03-10.3,33.018-25.503
				C141.197,224.304,132.972,213.446,120.866,208.971z"/>
			<path fill="#5C8F0C" d="M113.831,210.363c3.721,0.561,6.883,0.03,7.066-1.183c0.01-0.068-0.021-0.14-0.032-0.211
				c-3.08-1.139-6.405-1.871-9.904-2.096c-1.138-0.073-2.264-0.093-3.375-0.059c-0.073,0.104-0.142,0.212-0.158,0.329
				C107.246,208.362,110.112,209.803,113.831,210.363z"/>
		</g>
		<g>
			
				<linearGradient id="SVGID_11_" gradientUnits="userSpaceOnUse" x1="-643.5242" y1="-980.8921" x2="-683.1946" y2="-1020.5625" gradientTransform="matrix(0.9239 -0.3826 -0.3826 -0.9239 411.8152 -953.6166)">
				<stop  offset="0" style="stop-color:#E63468"/>
				<stop  offset="0.3166" style="stop-color:#E43366"/>
				<stop  offset="0.4967" style="stop-color:#DD305D"/>
				<stop  offset="0.6425" style="stop-color:#D22A4F"/>
				<stop  offset="0.7699" style="stop-color:#C2213C"/>
				<stop  offset="0.8849" style="stop-color:#AD1622"/>
				<stop  offset="0.9904" style="stop-color:#940903"/>
				<stop  offset="1" style="stop-color:#910800"/>
			</linearGradient>
			<path fill="url(#SVGID_11_)" d="M211.073,215.58c-4.314-12.682-18.172-19.752-32.58-17.489c0.209,0.105,0.373,0.233,0.441,0.409
				c0.447,1.153-2.559,3.397-6.716,5.013c-4.16,1.615-7.893,1.99-8.339,0.836c-0.052-0.13-0.054-0.271-0.021-0.426
				c-10.742,7.438-16.003,20.205-12.051,31.818c4.905,14.421,22.152,21.603,38.515,16.032
				C206.69,246.209,215.977,230.003,211.073,215.58z"/>
			<path fill="#5C8F0C" d="M163.879,204.35c0.446,1.152,4.179,0.778,8.339-0.835c4.158-1.615,7.164-3.859,6.716-5.013
				c-0.066-0.175-0.232-0.303-0.441-0.409c-1.977,0.311-3.963,0.788-5.936,1.459c-3.185,1.083-6.098,2.575-8.698,4.374
				C163.826,204.078,163.829,204.221,163.879,204.35z"/>
		</g>
	</g>
</g>
<g>
	<g>
		
			<linearGradient id="SVGID_12_" gradientUnits="userSpaceOnUse" x1="-274.1809" y1="940.8564" x2="-367.8346" y2="847.2026" gradientTransform="matrix(1 0 0 1 428.7998 -700.9395)">
			<stop  offset="0" style="stop-color:#89AD03"/>
			<stop  offset="1" style="stop-color:#BBD75E"/>
		</linearGradient>
		<path fill="url(#SVGID_12_)" d="M135.639,141.193c-18.409,0-2.301,4.834-27.843,4.834c-25.543,0-9.435-4.834-27.844-4.834
			c-18.408,0-41.649,14.729-41.649,43.49C38.303,213.447,63.156,262,96.06,262c0,0,4.373-1.152,11.736-1.152
			c7.362,0,11.736,1.152,11.736,1.152c32.904,0,57.757-48.553,57.757-77.316S154.048,141.193,135.639,141.193z"/>
		
			<linearGradient id="SVGID_13_" gradientUnits="userSpaceOnUse" x1="-372.4207" y1="924.4404" x2="-299.2463" y2="863.6919" gradientTransform="matrix(1 0 0 1 428.7998 -700.9395)">
			<stop  offset="0" style="stop-color:#FFFFFF;stop-opacity:0.55"/>
			<stop  offset="1" style="stop-color:#FFFFFF;stop-opacity:0"/>
		</linearGradient>
		<path fill="url(#SVGID_13_)" d="M57.115,154.311c0,0-13.116,14.842-13.116,31.063c0,16.225,16.568,72.141,54.019,72.141
			c0,0-16.739-13.807-16.739-44.527s16.624-33.65,26.52-33.65c9.895,0,11.965,2.934,18.352,2.934s21.744-0.172,21.744-22.264
			c0-22.09-18.122-13.979-18.122-13.979s-17.948,14.324-44.698,14.324S57.115,154.311,57.115,154.311z"/>
		<g>
			<g>
				<path fill="#593503" d="M105.054,146.359c-2.03-16.736,8.393-24.055,8.836-24.359l3.129,4.551
					c-0.33,0.234-8.094,5.869-6.481,19.143L105.054,146.359z"/>
			</g>
		</g>
		<path fill="#436E12" d="M45.666,122.691c0,0,4.703,32.412,36.811,32.412c27.913,0,25.769-10.326,25.769-10.326
			s2.967-10.635-28.63-10.635C48.018,134.145,45.666,122.691,45.666,122.691z"/>
		
			<linearGradient id="SVGID_14_" gradientUnits="userSpaceOnUse" x1="-378.8757" y1="842.2627" x2="-324.8533" y2="842.2627" gradientTransform="matrix(1 0 0 1 428.7998 -700.9395)">
			<stop  offset="0" style="stop-color:#FFFFFF;stop-opacity:0.55"/>
			<stop  offset="0.0596" style="stop-color:#FFFFFF;stop-opacity:0.5172"/>
			<stop  offset="1" style="stop-color:#FFFFFF;stop-opacity:0"/>
		</linearGradient>
		<path fill="url(#SVGID_14_)" d="M49.924,129.803c0,0,5.118,23.041,32.215,23.041c23.559,0,21.745-8.715,21.745-8.715
			s2.503-8.975-24.161-8.975S49.924,129.803,49.924,129.803z"/>
	</g>
	<g>
		
			<linearGradient id="SVGID_15_" gradientUnits="userSpaceOnUse" x1="-207.7922" y1="853.249" x2="-118.1212" y2="942.9199" gradientTransform="matrix(1 0 0 1 428.7998 -700.9395)">
			<stop  offset="0" style="stop-color:#FCC71F"/>
			<stop  offset="1" style="stop-color:#FC7826"/>
		</linearGradient>
		<circle fill="url(#SVGID_15_)" cx="266.11" cy="197.412" r="64.588"/>
		
			<linearGradient id="SVGID_16_" gradientUnits="userSpaceOnUse" x1="-207.7922" y1="853.249" x2="-118.1212" y2="942.9199" gradientTransform="matrix(1 0 0 1 428.7998 -700.9395)">
			<stop  offset="0" style="stop-color:#FCC71F"/>
			<stop  offset="0.2415" style="stop-color:#FAC51F"/>
			<stop  offset="0.3788" style="stop-color:#F1BF1E"/>
			<stop  offset="0.4901" style="stop-color:#E3B41C"/>
			<stop  offset="0.5875" style="stop-color:#D0A41A"/>
			<stop  offset="0.6756" style="stop-color:#B69016"/>
			<stop  offset="0.7573" style="stop-color:#967712"/>
			<stop  offset="0.8338" style="stop-color:#71590E"/>
			<stop  offset="0.9064" style="stop-color:#453709"/>
			<stop  offset="0.9733" style="stop-color:#151103"/>
			<stop  offset="1" style="stop-color:#000000"/>
		</linearGradient>
		<circle opacity="0.14" fill="url(#SVGID_16_)" enable-background="new    " cx="266.11" cy="197.412" r="64.588"/>
		<g>
			<path fill="#507700" d="M264.429,144.251c-0.115,0-0.232-0.006-0.352-0.021c-1.578-0.191-2.703-1.621-2.521-3.196
				c0.032-0.307,0.646-6.828-4.813-12.894c-1.065-1.185-0.97-3.01,0.215-4.076c1.186-1.065,3.011-0.971,4.077,0.215
				c7.29,8.099,6.298,17.056,6.253,17.433C267.114,143.178,265.868,144.251,264.429,144.251z"/>
		</g>
		<path fill="#507700" d="M273.687,145.995c0,0-5.863-4.602-1.714-9.651c0,0-6.515,4.329-7.497-1.625c0,0-0.712,4.51-6.938,2.796
			c0,0,7.222,3.656,0.643,7.455c0,0,2.376,1.863,7.433-2.673C265.614,142.297,266.47,145.184,273.687,145.995z"/>
		<path fill="#507700" d="M208.467,138.057c0,0,11.456-16.057,25.979-16.057c14.523,0,27.237,19.364,27.237,19.364
			s-3.778,9.682-16.771,9.682C231.921,151.046,225.156,137.336,208.467,138.057z"/>
		
			<linearGradient id="SVGID_17_" gradientUnits="userSpaceOnUse" x1="-221.1438" y1="905.0254" x2="-170.6655" y2="905.0254" gradientTransform="matrix(1 0 0 1 428.7998 -700.9395)">
			<stop  offset="0" style="stop-color:#FFFFFF;stop-opacity:0.55"/>
			<stop  offset="1" style="stop-color:#FFFFFF;stop-opacity:0"/>
		</linearGradient>
		<path fill="url(#SVGID_17_)" d="M228.584,151.046c0,0-22.731,13.893-22.731,49.252c0,35.361,32.836,56.83,59.717,56.83
			s84.1-33.392,22.894-53.041c-48.333-15.515-46.89-48.891-46.89-48.891S234.866,154.674,228.584,151.046z"/>
		
			<linearGradient id="SVGID_18_" gradientUnits="userSpaceOnUse" x1="-215.1902" y1="834.4873" x2="-172.9744" y2="834.4873" gradientTransform="matrix(1 0 0 1 428.7998 -700.9395)">
			<stop  offset="0" style="stop-color:#FFFFFF;stop-opacity:0.55"/>
			<stop  offset="0.0596" style="stop-color:#FFFFFF;stop-opacity:0.5172"/>
			<stop  offset="1" style="stop-color:#FFFFFF;stop-opacity:0"/>
		</linearGradient>
		<path fill="url(#SVGID_18_)" d="M213.61,134.99c0,0,8.389-10.463,21.739-10.463c13.352,0,20.477,13.439,20.477,13.439
			s-4.059,4.602-12.356,4.602c-8.301,0-15.794-7.477-21.248-7.477S213.61,134.99,213.61,134.99z"/>
	</g>
	<g>
		<path fill="none" stroke="#5C8F0C" stroke-width="2.8338" stroke-miterlimit="10" d="M171.437,201.514
			c-3.878-6.94-14.702-29.335-7.446-51.892c0,0-38.859,1.571-49.104,57.73"/>
		
			<linearGradient id="SVGID_19_" gradientUnits="userSpaceOnUse" x1="-223.2087" y1="-561.9126" x2="-169.3069" y2="-561.9126" gradientTransform="matrix(1 0 0 -1 387.1997 -400.8799)">
			<stop  offset="0" style="stop-color:#5C8F0C"/>
			<stop  offset="0.35" style="stop-color:#5E900E"/>
			<stop  offset="0.549" style="stop-color:#679213"/>
			<stop  offset="0.7101" style="stop-color:#75961D"/>
			<stop  offset="0.851" style="stop-color:#889C2B"/>
			<stop  offset="0.9774" style="stop-color:#A2A33C"/>
			<stop  offset="1" style="stop-color:#A7A540"/>
		</linearGradient>
		<path fill="url(#SVGID_19_)" d="M163.991,149.624c0,0,4.575-5.373,15.558-5.373c10.979,0,30.285,24.176,38.344,24.176
			c0,0-9.031,9.388-20.811,9.388C179.637,177.813,163.991,160.93,163.991,149.624z"/>
		
			<linearGradient id="SVGID_20_" gradientUnits="userSpaceOnUse" x1="-175.2043" y1="-574.832" x2="-215.9409" y2="-557.829" gradientTransform="matrix(1 0 0 -1 387.1997 -400.8799)">
			<stop  offset="0" style="stop-color:#FFFFFF;stop-opacity:0.55"/>
			<stop  offset="0.0596" style="stop-color:#FFFFFF;stop-opacity:0.5172"/>
			<stop  offset="1" style="stop-color:#FFFFFF;stop-opacity:0"/>
		</linearGradient>
		<path fill="url(#SVGID_20_)" d="M213.996,169.4c0,0-6.732,6.198-17.357,6.198c-10.629,0-26.567-11.157-26.567-22.492
			s18.063,2.833,24.262,8.146C200.535,166.566,206.735,169.4,213.996,169.4z"/>
		<g>
			
				<linearGradient id="SVGID_21_" gradientUnits="userSpaceOnUse" x1="-257.491" y1="-614.752" x2="-297.1621" y2="-654.423" gradientTransform="matrix(1 0 0 -1 387.1997 -400.8799)">
				<stop  offset="0" style="stop-color:#E63468"/>
				<stop  offset="0.3166" style="stop-color:#E43366"/>
				<stop  offset="0.4967" style="stop-color:#DD305D"/>
				<stop  offset="0.6425" style="stop-color:#D22A4F"/>
				<stop  offset="0.7699" style="stop-color:#C2213C"/>
				<stop  offset="0.8849" style="stop-color:#AD1622"/>
				<stop  offset="0.9904" style="stop-color:#940903"/>
				<stop  offset="1" style="stop-color:#910800"/>
			</linearGradient>
			<path fill="url(#SVGID_21_)" d="M120.866,208.971c0.01,0.071,0.042,0.143,0.032,0.213c-0.184,1.214-3.347,1.74-7.066,1.182
				c-3.72-0.562-6.585-2.002-6.402-3.214c0.018-0.119,0.086-0.226,0.158-0.33c-15.766,0.462-28.725,11.359-29.644,25.557
				c-0.984,15.201,12.202,28.432,29.453,29.546c17.25,1.119,32.03-10.3,33.018-25.503
				C141.197,224.304,132.972,213.446,120.866,208.971z"/>
			<path fill="#5C8F0C" d="M113.831,210.363c3.721,0.561,6.883,0.03,7.066-1.183c0.01-0.068-0.021-0.14-0.032-0.211
				c-3.08-1.139-6.405-1.871-9.904-2.096c-1.138-0.073-2.264-0.093-3.375-0.059c-0.073,0.104-0.142,0.212-0.158,0.329
				C107.246,208.362,110.112,209.803,113.831,210.363z"/>
		</g>
		<g>
			
				<linearGradient id="SVGID_22_" gradientUnits="userSpaceOnUse" x1="-643.5242" y1="-980.8921" x2="-683.1946" y2="-1020.5625" gradientTransform="matrix(0.9239 -0.3826 -0.3826 -0.9239 411.8152 -953.6166)">
				<stop  offset="0" style="stop-color:#E63468"/>
				<stop  offset="0.3166" style="stop-color:#E43366"/>
				<stop  offset="0.4967" style="stop-color:#DD305D"/>
				<stop  offset="0.6425" style="stop-color:#D22A4F"/>
				<stop  offset="0.7699" style="stop-color:#C2213C"/>
				<stop  offset="0.8849" style="stop-color:#AD1622"/>
				<stop  offset="0.9904" style="stop-color:#940903"/>
				<stop  offset="1" style="stop-color:#910800"/>
			</linearGradient>
			<path fill="url(#SVGID_22_)" d="M211.073,215.58c-4.314-12.682-18.172-19.752-32.58-17.489c0.209,0.105,0.373,0.233,0.441,0.409
				c0.447,1.153-2.559,3.397-6.716,5.013c-4.16,1.615-7.893,1.99-8.339,0.836c-0.052-0.13-0.054-0.271-0.021-0.426
				c-10.742,7.438-16.003,20.205-12.051,31.818c4.905,14.421,22.152,21.603,38.515,16.032
				C206.69,246.209,215.977,230.003,211.073,215.58z"/>
			<path fill="#5C8F0C" d="M163.879,204.35c0.446,1.152,4.179,0.778,8.339-0.835c4.158-1.615,7.164-3.859,6.716-5.013
				c-0.066-0.175-0.232-0.303-0.441-0.409c-1.977,0.311-3.963,0.788-5.936,1.459c-3.185,1.083-6.098,2.575-8.698,4.374
				C163.826,204.078,163.829,204.221,163.879,204.35z"/>
		</g>
	</g>
</g>
</svg>
