<?xml version="1.0" encoding="utf-8"?>
<!-- Generator: Adobe Illustrator 15.0.2, SVG Export Plug-In . SVG Version: 6.00 Build 0)  -->
<!DOCTYPE svg PUBLIC "-//W3C//DTD SVG 1.1//EN" "http://www.w3.org/Graphics/SVG/1.1/DTD/svg11.dtd">
<svg version="1.1" id="Calque_1" xmlns="http://www.w3.org/2000/svg" xmlns:xlink="http://www.w3.org/1999/xlink" x="0px" y="0px"
	 width="150px" height="220px" viewBox="0 0 150 220" enable-background="new 0 0 150 220" xml:space="preserve">
<g>
	<path fill="none" d="M148.905,153.338l0.146-2.094c-0.328,0.302-0.659,0.598-0.989,0.895L148.905,153.338z"/>
	<path fill="#1A6103" d="M145.675,149.096c-19.725,16.842-44.327,26.846-71.011,26.846c-27.328,0-52.478-10.486-72.437-28.073
		L0,150.993c20.3,18.795,46.31,30.084,74.664,30.084c26.973,0,51.818-10.221,71.65-27.396l0.229-3.315L145.675,149.096z"/>
	<path fill="#1A6103" d="M147.293,151.464l-0.75-1.098l-0.229,3.315c0.587-0.508,1.169-1.022,1.747-1.543l-0.684-0.968
		L147.293,151.464z"/>
	<path fill="#1A6103" d="M145.825,148.967c-0.05,0.042-0.1,0.086-0.15,0.129l0.868,1.271l0.023-0.348L145.825,148.967z"/>
	<polygon fill="#1A6103" points="146.543,150.366 147.293,151.464 147.378,151.171 146.566,150.019 	"/>
	<path fill="#002D00" d="M146.566,150.019l0.124-1.797c-0.287,0.249-0.576,0.498-0.865,0.745L146.566,150.019z"/>
	<path fill="#002D00" d="M146.566,150.019l0.812,1.152l1.414-4.829c-0.694,0.635-1.394,1.262-2.102,1.88L146.566,150.019z"/>
	<path fill="#FBEACC" d="M145.47,148.46l-4.55-6.455l-1.492,5.768l1.492-5.768l-0.278-0.393
		c-18.809,14.37-41.521,22.772-65.978,22.772c-25.018,0-48.208-8.795-67.264-23.774l-5.173,7.258
		c19.959,17.587,45.109,28.073,72.437,28.073c26.684,0,51.286-10.004,71.011-26.846l-0.276-0.407L145.47,148.46z"/>
	<path fill="#002D00" d="M147.016,143.512l2.222-7.109l-0.874-1.229c-0.275,0.25-0.548,0.501-0.825,0.746L147.016,143.512z"/>
	<path fill="#FBEACC" d="M145.47,148.46l-0.071,0.229l0.276,0.407c0.051-0.043,0.101-0.087,0.15-0.129L145.47,148.46z"/>
	<path fill="#002D00" d="M148.363,135.173l-0.704-0.989l-0.121,1.735C147.815,135.674,148.088,135.423,148.363,135.173z"/>
	<path fill="#FBEACC" d="M144.2,129.322l-3.083,11.92c-0.159,0.122-0.314,0.248-0.476,0.37l0.278,0.393l4.55,6.455l0.355,0.507
		c0.289-0.247,0.578-0.496,0.865-0.745l0.325-4.71l0.522-7.593l0.121-1.735L144.2,129.322z"/>
	<path opacity="0.05" d="M144.2,129.322l-3.083,11.92c-0.159,0.122-0.314,0.248-0.476,0.37l0.278,0.393l4.55,6.455l0.355,0.507
		c0.289-0.247,0.578-0.496,0.865-0.745l0.325-4.71l0.522-7.593l0.121-1.735L144.2,129.322z"/>
	<path fill="#C11F06" d="M141.117,141.242l3.083-11.92L79.888,38.923l-5.838,8.19l66.592,94.499
		C140.803,141.49,140.958,141.364,141.117,141.242z"/>
	<polygon fill="#002D00" points="145.825,148.967 147.659,134.184 150,137.474 148.062,152.139 	"/>
	<g>
		<linearGradient id="SVGID_1_" gradientUnits="userSpaceOnUse" x1="94.3916" y1="62.5757" x2="62.9325" y2="109.1223">
			<stop  offset="0" style="stop-color:#E86962"/>
			<stop  offset="1" style="stop-color:#E64A3E"/>
		</linearGradient>
		<path fill="url(#SVGID_1_)" d="M74.049,47.113L7.4,140.61c15.399,12.104,33.499,20.165,53.08,22.815L85.194,62.93L74.049,47.113z"
			/>
		<path fill="#E64A3E" d="M140.642,141.612L85.194,62.93L60.48,163.426c4.65,0.63,9.383,0.959,14.184,0.959
			C99.121,164.385,121.833,155.982,140.642,141.612z"/>
	</g>
	<g>
		<path d="M33.012,114.656c-0.106,0.707-0.299,1.355-0.445,2.036c-0.175,0.661-0.376,1.303-0.604,1.929
			c-0.228,0.624-0.164,1.447-0.764,1.819c-0.276,0.203-0.602,0.372-1.015,0.482c-0.402,0.118-0.867,0.194-1.505,0.153l-0.319-0.216
			c-0.277-0.577-0.38-1.036-0.421-1.452c-0.052-0.425-0.017-0.79,0.068-1.122c0.122-0.697,0.908-0.945,1.402-1.391
			c0.494-0.445,1.015-0.871,1.563-1.281c0.576-0.391,1.106-0.812,1.722-1.174L33.012,114.656z"/>
		<path d="M39.323,124.004c-0.189,0.98-0.458,1.905-0.722,2.834c-0.276,0.921-0.587,1.817-0.933,2.688
			c-0.345,0.873-0.305,2.013-1.144,2.54c-0.388,0.287-0.839,0.528-1.408,0.688c-0.553,0.171-1.188,0.285-2.054,0.238l-0.421-0.293
			c-0.344-0.795-0.457-1.431-0.489-2.009c-0.046-0.588,0.023-1.098,0.158-1.559c0.205-0.97,1.288-1.328,1.986-1.954
			c0.697-0.627,1.429-1.229,2.197-1.807c0.78-0.569,1.554-1.144,2.408-1.66L39.323,124.004z"/>
		<path d="M49.557,126.67c0.023,0.657-0.049,1.268-0.069,1.902c-0.052,0.621-0.133,1.227-0.243,1.818
			c-0.109,0.592,0.098,1.339-0.416,1.734c-0.231,0.209-0.515,0.394-0.895,0.531c-0.368,0.145-0.803,0.255-1.426,0.273l-0.346-0.168
			c-0.369-0.503-0.55-0.914-0.663-1.292c-0.125-0.384-0.156-0.721-0.133-1.033c-0.005-0.648,0.71-0.944,1.109-1.396
			c0.398-0.451,0.826-0.889,1.281-1.312c0.487-0.408,0.924-0.841,1.456-1.228L49.557,126.67z"/>
		<path d="M57.987,129.137c0.349,0.854,0.598,1.701,0.856,2.549c0.243,0.847,0.443,1.69,0.6,2.53
			c0.158,0.842,0.784,1.715,0.343,2.515c-0.182,0.402-0.442,0.8-0.844,1.188c-0.384,0.39-0.868,0.771-1.63,1.135l-0.513-0.035
			c-0.706-0.463-1.133-0.908-1.461-1.344c-0.345-0.439-0.55-0.868-0.675-1.292c-0.328-0.853,0.411-1.633,0.682-2.444
			c0.27-0.813,0.582-1.621,0.937-2.427c0.371-0.806,0.733-1.61,1.194-2.409L57.987,129.137z"/>
		<path d="M73.389,129.711c0.33,0.768,0.555,1.538,0.836,2.308c0.247,0.77,0.461,1.542,0.643,2.313
			c0.183,0.772,0.718,1.534,0.452,2.318c-0.105,0.393-0.269,0.785-0.539,1.181c-0.256,0.396-0.587,0.795-1.128,1.199l-0.385,0.01
			c-0.563-0.372-0.916-0.751-1.194-1.131c-0.292-0.381-0.478-0.764-0.604-1.148c-0.311-0.769,0.18-1.561,0.319-2.342
			c0.139-0.78,0.309-1.563,0.512-2.346c0.237-0.783,0.418-1.566,0.704-2.353L73.389,129.711z"/>
		<path d="M87.56,130.987c0.566,0.721,1.037,1.465,1.515,2.204c0.464,0.745,0.886,1.498,1.266,2.26s1.22,1.426,1.012,2.312
			c-0.065,0.435-0.208,0.885-0.489,1.365c-0.265,0.478-0.626,0.975-1.262,1.53l-0.501,0.104c-0.806-0.25-1.337-0.559-1.772-0.888
			c-0.451-0.325-0.765-0.681-1-1.052c-0.548-0.726-0.048-1.673-0.009-2.524c0.04-0.849,0.12-1.708,0.243-2.575
			c0.138-0.872,0.269-1.74,0.495-2.631L87.56,130.987z"/>
		<path d="M98.682,126.528c0.489,0.533,0.878,1.096,1.322,1.643c0.408,0.558,0.787,1.125,1.136,1.702
			c0.349,0.575,1.033,1.047,0.953,1.756c-0.013,0.348-0.083,0.712-0.253,1.107c-0.158,0.393-0.387,0.807-0.816,1.283l-0.367,0.115
			c-0.625-0.148-1.049-0.357-1.402-0.591c-0.366-0.228-0.63-0.487-0.838-0.765c-0.472-0.539-0.176-1.315-0.218-1.989
			c-0.042-0.67-0.053-1.353-0.033-2.044c0.053-0.702,0.052-1.387,0.151-2.103L98.682,126.528z"/>
		<path d="M109.108,126.51c0.51,0.398,0.923,0.839,1.389,1.256c0.434,0.433,0.837,0.877,1.211,1.335
			c0.376,0.457,1.073,0.773,1.036,1.41c0.007,0.308-0.039,0.639-0.184,1.011c-0.132,0.369-0.331,0.767-0.724,1.248l-0.354,0.152
			c-0.619-0.04-1.047-0.164-1.405-0.317c-0.371-0.148-0.646-0.34-0.865-0.554c-0.491-0.406-0.25-1.134-0.329-1.72
			c-0.08-0.585-0.131-1.185-0.152-1.795c0.01-0.626-0.03-1.229,0.023-1.874L109.108,126.51z"/>
		<path d="M119.53,120.87c0.627,0.461,1.164,0.973,1.748,1.456c0.556,0.502,1.083,1.02,1.582,1.554s1.305,0.889,1.415,1.65
			c0.081,0.366,0.111,0.763,0.05,1.213c-0.05,0.443-0.165,0.924-0.461,1.511l-0.331,0.195c-0.657-0.028-1.134-0.163-1.545-0.335
			c-0.423-0.165-0.754-0.385-1.033-0.633c-0.612-0.469-0.529-1.345-0.753-2.042c-0.223-0.695-0.417-1.409-0.584-2.138
			c-0.138-0.747-0.323-1.465-0.419-2.235L119.53,120.87z"/>
	</g>
</g>
</svg>
