<?xml version="1.0" encoding="utf-8"?>
<!-- Generator: Adobe Illustrator 15.0.2, SVG Export Plug-In . SVG Version: 6.00 Build 0)  -->
<!DOCTYPE svg PUBLIC "-//W3C//DTD SVG 1.1//EN" "http://www.w3.org/Graphics/SVG/1.1/DTD/svg11.dtd">
<svg version="1.1" id="Calque_1" xmlns="http://www.w3.org/2000/svg" xmlns:xlink="http://www.w3.org/1999/xlink" x="0px" y="0px"
	 width="80px" height="28.805px" viewBox="0 0 80 28.805" enable-background="new 0 0 80 28.805" xml:space="preserve">
<g id="Effet_NoPatch">
	
		<linearGradient id="SVGID_1_" gradientUnits="userSpaceOnUse" x1="1220.8662" y1="1016.9612" x2="1275.0781" y2="1016.9612" gradientTransform="matrix(1 0 0 1 -1200.4805 -1008.1504)">
		<stop  offset="0" style="stop-color:#0098C9"/>
		<stop  offset="0.0554" style="stop-color:#32ABD2"/>
		<stop  offset="0.1239" style="stop-color:#69C0DD"/>
		<stop  offset="0.1907" style="stop-color:#97D2E6"/>
		<stop  offset="0.2542" style="stop-color:#BBDFEC"/>
		<stop  offset="0.3136" style="stop-color:#D4E9F1"/>
		<stop  offset="0.3672" style="stop-color:#E4EFF4"/>
		<stop  offset="0.41" style="stop-color:#E9F1F5"/>
		<stop  offset="0.4693" style="stop-color:#E3EFF4"/>
		<stop  offset="0.547" style="stop-color:#D3E9F1"/>
		<stop  offset="0.6349" style="stop-color:#B8DEEC"/>
		<stop  offset="0.7303" style="stop-color:#92D0E5"/>
		<stop  offset="0.8318" style="stop-color:#61BEDC"/>
		<stop  offset="0.9367" style="stop-color:#27A8D1"/>
		<stop  offset="1" style="stop-color:#0099CA"/>
	</linearGradient>
	<path fill="url(#SVGID_1_)" d="M20.386,12.619c0,0,22.716-13.729,40.634-12.55c18.66,1.232,12.81,16.655,12.364,17.554
		c0,0,0.591-11.502-12.364-13.294C43.646,2.537,20.386,12.619,20.386,12.619z"/>
</g>
<g id="Calque_1_1_">
	<g>
		<path fill="#FFFBFF" d="M4.714,14.939l2.858,9.021l3.059-9.021h2.254l2.777,9.021l3.08-9.021h2.917l-5.534,13.487h-2.576
			l-2.536-7.871l-2.938,7.871H5.479c0,0-3.453-10.07-3.868-11.174C0.887,15.328,0,14.939,0,14.939H4.714z"/>
		<path fill="#FFFBFF" d="M43.238,14.939c0.422,0,4.566-0.085,5.011-0.085c3.36,0,5.856,0.085,7.587,2.276
			c1.107,1.383,1.288,3.169,1.288,4.146c0,3.319-1.812,5.615-4.347,6.573c-1.289,0.488-3.021,0.574-5.012,0.574h-4.527V14.939z
			 M46.921,26.576h0.865c2.758,0,5.394,0,5.394-5.148c0-4.765-2.838-4.765-4.469-4.765c-0.502,0-1.188,0.021-1.79,0.021V26.576
			L46.921,26.576z"/>
		<polygon fill="#FFFBFF" points="67.137,16.962 67.137,18.68 61.779,18.68 61.779,21.574 66.555,21.574 66.555,23.255 
			61.779,23.255 61.779,26.601 67.357,26.601 67.357,28.427 58.65,28.427 58.65,16.962 		"/>
		<polygon fill="#FFFBFF" points="71.202,16.962 73.904,24.973 77.035,16.962 79.566,16.962 74.266,28.427 72.006,28.427 
			67.645,16.962 		"/>
		<path fill="#FFFBFF" d="M76.936,27.292c0-0.714,0.604-1.252,1.369-1.252c0.758,0,1.357,0.538,1.357,1.252
			c0,0.727-0.6,1.261-1.357,1.261C77.536,28.552,76.936,28.017,76.936,27.292z M78.305,28.804c0.913,0,1.695-0.64,1.695-1.513
			c0-0.865-0.782-1.504-1.695-1.504c-0.925,0-1.705,0.639-1.705,1.504C76.6,28.165,77.38,28.804,78.305,28.804z M77.947,27.411
			h0.339l0.511,0.754h0.328L78.574,27.4c0.283-0.029,0.502-0.167,0.502-0.479c0-0.344-0.227-0.495-0.684-0.495h-0.736v1.739h0.291
			V27.411z M77.947,27.188V26.65h0.4c0.202,0,0.422,0.04,0.422,0.255c0,0.27-0.227,0.283-0.475,0.283H77.947z"/>
		<path fill="#FFFBFF" d="M38.191,16.962c1.059,0,1.905,0.229,2.542,0.687c0.677,0.491,1.014,1.222,1.014,2.187
			c0,1.016-0.403,1.732-1.208,2.158c-0.264,0.145-0.656,0.284-1.181,0.428c0.614,0.117,1.109,0.304,1.487,0.561
			c0.743,0.517,1.116,1.253,1.116,2.218c0,1.186-0.476,2.062-1.415,2.631c-0.619,0.374-1.352,0.56-2.193,0.56h-5.468V16.962H38.191z
			 M36.06,21.986h0.642c0.614,0,1.06-0.104,1.335-0.314c0.182-0.146,0.33-0.372,0.446-0.688c0.115-0.312,0.174-0.646,0.174-1.01
			c0-1.186-0.584-1.777-1.749-1.777H36.06V21.986z M36.06,27.148h1.005c1.123,0,1.684-0.613,1.684-1.852
			c0-1.401-0.656-2.104-1.973-2.104H36.06V27.148z"/>
		<polygon fill="#FFFBFF" points="31.001,16.962 31.001,18.68 25.647,18.68 25.647,21.574 30.421,21.574 30.421,23.255 
			25.647,23.255 25.647,26.601 31.224,26.601 31.224,28.427 22.517,28.427 22.517,16.962 		"/>
	</g>
	<g>
		<path fill="#FFFBFF" d="M3.319,10.107v2.818H1.687V5.27c1.088-0.039,1.724-0.059,1.908-0.059c1.452,0,2.513,0.187,3.185,0.558
			c0.672,0.371,1.008,0.95,1.008,1.738c0,1.758-1.243,2.637-3.728,2.637C3.875,10.144,3.628,10.132,3.319,10.107z M3.319,6.446
			v2.453c0.276,0.023,0.494,0.037,0.653,0.037c0.745,0,1.289-0.104,1.632-0.312C5.946,8.417,6.118,8.08,6.118,7.612
			c0-0.795-0.768-1.189-2.304-1.189C3.643,6.42,3.478,6.429,3.319,6.446z"/>
		<path fill="#FFFBFF" d="M8.466,10.112c0-0.854,0.296-1.55,0.888-2.086c0.592-0.537,1.374-0.807,2.344-0.807
			c1.021,0,1.814,0.259,2.379,0.774c0.564,0.516,0.847,1.222,0.847,2.115c0,0.895-0.288,1.604-0.863,2.129
			c-0.575,0.526-1.363,0.79-2.363,0.79c-1.021,0-1.815-0.266-2.382-0.797C8.749,11.702,8.466,10.995,8.466,10.112z M10.098,10.112
			c0,1.234,0.534,1.854,1.601,1.854c0.49,0,0.877-0.159,1.164-0.48c0.287-0.318,0.43-0.775,0.43-1.371
			c0-1.217-0.531-1.822-1.594-1.822c-0.49,0-0.878,0.161-1.167,0.479C10.242,9.089,10.098,9.537,10.098,10.112z"/>
		<path fill="#FFFBFF" d="M22.705,13.031h-0.571l-1.845-3.438l-1.839,3.438h-0.577l-2.536-5.703h1.651l1.349,3.342l1.645-3.342
			h0.565l1.701,3.36l1.456-3.36h1.544L22.705,13.031z"/>
		<path fill="#FFFBFF" d="M32.124,10.526h-4.801c0.029,0.446,0.213,0.793,0.552,1.041s0.795,0.372,1.368,0.372
			c0.716,0,1.26-0.152,1.632-0.466l0.609,0.999c-0.552,0.372-1.376,0.563-2.473,0.563c-1.025,0-1.836-0.25-2.432-0.75
			c-0.596-0.5-0.895-1.198-0.895-2.098c0-0.882,0.328-1.598,0.982-2.145s1.44-0.82,2.357-0.82c0.975,0,1.757,0.241,2.347,0.729
			c0.59,0.482,0.885,1.102,0.885,1.852C32.256,9.959,32.212,10.201,32.124,10.526z M27.379,9.542h3.301
			c-0.109-0.818-0.653-1.229-1.632-1.229C28.153,8.313,27.597,8.723,27.379,9.542z"/>
		<path fill="#FFFBFF" d="M37.396,8.543c-0.28-0.152-0.588-0.229-0.923-0.229c-0.364,0-0.688,0.141-0.97,0.413
			c-0.282,0.274-0.423,0.611-0.423,1.01v3.189h-1.568V7.325h1.568v0.513c0.439-0.412,1.023-0.616,1.751-0.616
			c0.536,0,0.946,0.067,1.23,0.203L37.396,8.543z"/>
		<path fill="#FFFBFF" d="M44.952,10.526H40.15c0.029,0.446,0.214,0.793,0.553,1.041s0.795,0.372,1.367,0.372
			c0.716,0,1.26-0.152,1.633-0.466l0.607,0.999c-0.555,0.372-1.377,0.563-2.476,0.563c-1.022,0-1.836-0.25-2.432-0.75
			c-0.597-0.5-0.895-1.198-0.895-2.098c0-0.882,0.327-1.598,0.982-2.145c0.654-0.547,1.438-0.82,2.354-0.82
			c0.977,0,1.756,0.241,2.346,0.729c0.595,0.482,0.89,1.102,0.89,1.852C45.084,9.959,45.04,10.201,44.952,10.526z M40.207,9.542
			h3.301c-0.107-0.818-0.652-1.229-1.632-1.229C40.98,8.313,40.425,8.723,40.207,9.542z"/>
		<path fill="#FFFBFF" d="M50.663,12.926v-0.34c-0.13,0.119-0.351,0.223-0.659,0.312s-0.63,0.133-0.96,0.133
			c-0.938,0-1.675-0.245-2.213-0.74c-0.537-0.495-0.808-1.188-0.808-2.071s0.31-1.605,0.927-2.163
			c0.616-0.556,1.391-0.834,2.319-0.834c0.51,0,0.975,0.088,1.394,0.263V5.238l1.567-0.313v8.002L50.663,12.926L50.663,12.926z
			 M50.663,8.664c-0.335-0.226-0.685-0.334-1.05-0.334c-0.627,0-1.109,0.156-1.448,0.479c-0.339,0.318-0.509,0.775-0.509,1.373
			c0,1.165,0.674,1.747,2.021,1.747c0.15,0,0.335-0.038,0.556-0.112c0.223-0.072,0.363-0.148,0.434-0.229L50.663,8.664L50.663,8.664
			z"/>
		<path fill="#FFFBFF" d="M58.072,12.73l-0.225,0.266h-0.563v-4.96l0.999-0.2v1.664c0.266-0.138,0.557-0.203,0.869-0.203
			c0.625,0,1.132,0.165,1.515,0.495c0.384,0.329,0.575,0.751,0.575,1.267c0,0.597-0.192,1.068-0.579,1.417
			c-0.388,0.347-0.909,0.521-1.567,0.521C58.698,12.993,58.357,12.905,58.072,12.73z M58.284,10.21v1.857
			c0.146,0.146,0.345,0.219,0.595,0.219c0.482,0,0.823-0.098,1.023-0.286c0.201-0.19,0.303-0.496,0.303-0.915
			c0-0.727-0.415-1.085-1.246-1.085C58.663,10.001,58.438,10.071,58.284,10.21z"/>
		<path fill="#FFFBFF" d="M63.941,13.499c-0.106,0.235-0.336,0.436-0.688,0.591c-0.353,0.157-0.758,0.235-1.226,0.235v-0.736
			c0.771,0,1.154-0.161,1.154-0.481c0-0.213-0.104-0.539-0.317-0.979l-1.341-2.769h1.035l1.166,2.466l1.051-2.466h1.033
			L63.941,13.499z"/>
	</g>
</g>
</svg>
