<?xml version="1.0" encoding="utf-8"?>
<!-- Generator: Adobe Illustrator 15.0.0, SVG Export Plug-In . SVG Version: 6.00 Build 0)  -->
<!DOCTYPE svg PUBLIC "-//W3C//DTD SVG 1.1//EN" "http://www.w3.org/Graphics/SVG/1.1/DTD/svg11.dtd">
<svg version="1.1" id="Calque_1" xmlns="http://www.w3.org/2000/svg" xmlns:xlink="http://www.w3.org/1999/xlink" x="0px" y="0px"
	 width="320.25px" height="24.25px" viewBox="0 0 320.25 24.25" enable-background="new 0 0 320.25 24.25" xml:space="preserve">
<rect fill="#1DA9B6" width="80" height="24"/>
<linearGradient id="SVGID_1_" gradientUnits="userSpaceOnUse" x1="3427.8555" y1="-2744.0566" x2="3427.8555" y2="-2767.0566" gradientTransform="matrix(1 0 0 -1 -3387.8555 -2743.5566)">
	<stop  offset="0" style="stop-color:#EEEBE8"/>
	<stop  offset="1" style="stop-color:#E8C6B0"/>
</linearGradient>
<rect x="0.5" y="0.5" fill="url(#SVGID_1_)" width="79" height="23"/>
<linearGradient id="SVGID_2_" gradientUnits="userSpaceOnUse" x1="2165.3691" y1="-1746.3008" x2="2165.3691" y2="-1723.3008" gradientTransform="matrix(1 0 0 -1 -2125.3691 -1722.8008)">
	<stop  offset="0" style="stop-color:#FFFFFE"/>
	<stop  offset="1" style="stop-color:#FFFFFE;stop-opacity:0"/>
</linearGradient>
<path fill="url(#SVGID_2_)" d="M79,1v22H1V1H79 M79.5,0.5h-79v23h79V0.5L79.5,0.5z"/>
<g>
	<rect x="80.084" fill="#1DA9B6" width="80" height="24"/>
	
		<linearGradient id="SVGID_3_" gradientUnits="userSpaceOnUse" x1="3207.0605" y1="2483.958" x2="3207.0605" y2="2506.958" gradientTransform="matrix(-1 0 0 -1 3327.1445 2507.457)">
		<stop  offset="0" style="stop-color:#EEEBE8"/>
		<stop  offset="1" style="stop-color:#E8C6B0"/>
	</linearGradient>
	<rect x="80.584" y="0.5" fill="url(#SVGID_3_)" width="79" height="23"/>
	
		<linearGradient id="SVGID_4_" gradientUnits="userSpaceOnUse" x1="200.165" y1="23.751" x2="200.165" y2="0.7505" gradientTransform="matrix(-1 0 0 -1 320.25 24.25)">
		<stop  offset="0" style="stop-color:#000000"/>
		<stop  offset="1" style="stop-color:#000000;stop-opacity:0"/>
	</linearGradient>
	<path fill="url(#SVGID_4_)" d="M81.084,23V1h78v22H81.084 M80.584,23.5h79v-23h-79V23.5L80.584,23.5z"/>
</g>
<g>
	<rect x="160.167" fill="#1DA9B6" width="80" height="24"/>
	
		<linearGradient id="SVGID_5_" gradientUnits="userSpaceOnUse" x1="3126.9775" y1="2483.957" x2="3126.9775" y2="2506.957" gradientTransform="matrix(-1 0 0 -1 3327.1445 2507.457)">
		<stop  offset="0" style="stop-color:#EEEBE8"/>
		<stop  offset="1" style="stop-color:#E8C6B0"/>
	</linearGradient>
	<rect x="160.667" y="0.5" fill="url(#SVGID_5_)" width="79" height="23"/>
	
		<linearGradient id="SVGID_6_" gradientUnits="userSpaceOnUse" x1="120.083" y1="23.751" x2="120.083" y2="0.7505" gradientTransform="matrix(-1 0 0 -1 320.25 24.25)">
		<stop  offset="0" style="stop-color:#000000"/>
		<stop  offset="1" style="stop-color:#000000;stop-opacity:0"/>
	</linearGradient>
	<path fill="url(#SVGID_6_)" d="M161.167,23V1h78v22H161.167 M160.667,23.5h79v-23h-79V23.5L160.667,23.5z"/>
</g>
<g>
	<g opacity="0.5">
		<path fill="#1DA9B6" d="M319.75,0.5v23h-79v-23H319.75 M320.25,0h-80v24h80V0L320.25,0z"/>
	</g>
	
		<linearGradient id="SVGID_7_" gradientUnits="userSpaceOnUse" x1="3668.1055" y1="-2744.0566" x2="3668.1055" y2="-2767.0566" gradientTransform="matrix(1 0 0 -1 -3387.8555 -2743.5566)">
		<stop  offset="0" style="stop-color:#EEEBE8"/>
		<stop  offset="1" style="stop-color:#E8C6B0"/>
	</linearGradient>
	<rect x="240.75" y="0.5" opacity="0.5" fill="url(#SVGID_7_)" width="79" height="23"/>
	
		<linearGradient id="SVGID_8_" gradientUnits="userSpaceOnUse" x1="2405.6191" y1="-1746.3008" x2="2405.6191" y2="-1723.3008" gradientTransform="matrix(1 0 0 -1 -2125.3691 -1722.8008)">
		<stop  offset="0" style="stop-color:#FFFFFE"/>
		<stop  offset="1" style="stop-color:#FFFFFE;stop-opacity:0"/>
	</linearGradient>
	<path opacity="0.5" fill="url(#SVGID_8_)" d="M319.25,1v22h-78V1H319.25 M319.75,0.5h-79v23h79V0.5L319.75,0.5z"/>
</g>
</svg>
