<?xml version="1.0" encoding="utf-8"?>
<!-- Generator: Adobe Illustrator 15.0.2, SVG Export Plug-In . SVG Version: 6.00 Build 0)  -->
<!DOCTYPE svg PUBLIC "-//W3C//DTD SVG 1.1//EN" "http://www.w3.org/Graphics/SVG/1.1/DTD/svg11.dtd">
<svg version="1.1" id="Calque_1" xmlns="http://www.w3.org/2000/svg" xmlns:xlink="http://www.w3.org/1999/xlink" x="0px" y="0px"
	 width="24px" height="24px" viewBox="28 28 24 24" enable-background="new 28 28 24 24" xml:space="preserve">
<g>
	<path fill="#2E2E2D" d="M33.565,52L28,49.439V33.354l5.565,2.535V52z M33.565,33.379h-1.334c0-0.746,0.119-1.448,0.357-2.104
		c0.238-0.656,0.562-1.227,0.97-1.711c0.409-0.484,0.887-0.867,1.435-1.146C35.542,28.14,36.126,28,36.746,28
		c0.665,0,1.285,0.144,1.86,0.431c0.575,0.288,1.074,0.727,1.496,1.319l-0.93,0.914c-0.314-0.438-0.689-0.785-1.125-1.042
		c-0.436-0.257-0.869-0.386-1.3-0.386c-0.44,0-0.854,0.107-1.24,0.322c-0.386,0.214-0.723,0.508-1.011,0.881
		c-0.287,0.373-0.514,0.813-0.681,1.319C33.648,32.264,33.565,32.804,33.565,33.379z M52,52H34.522V36.326H52V52z M47.782,34.962
		h-1.321c0-0.558-0.082-1.085-0.249-1.583c-0.166-0.498-0.393-0.931-0.68-1.3c-0.288-0.369-0.625-0.661-1.011-0.875
		c-0.387-0.214-0.8-0.322-1.24-0.322s-0.854,0.107-1.24,0.322c-0.386,0.215-0.723,0.506-1.011,0.875
		c-0.287,0.369-0.514,0.802-0.68,1.3c-0.166,0.498-0.25,1.025-0.25,1.583h-1.333c0-0.729,0.119-1.417,0.357-2.065
		c0.238-0.647,0.562-1.212,0.97-1.692s0.887-0.86,1.435-1.139s1.132-0.418,1.752-0.418s1.204,0.139,1.752,0.418
		s1.024,0.659,1.428,1.139c0.405,0.48,0.726,1.044,0.964,1.692S47.782,34.233,47.782,34.962z"/>
</g>
</svg>
