<?xml version="1.0" encoding="utf-8"?>
<!-- Generator: Adobe Illustrator 15.0.2, SVG Export Plug-In . SVG Version: 6.00 Build 0)  -->
<!DOCTYPE svg PUBLIC "-//W3C//DTD SVG 1.1//EN" "http://www.w3.org/Graphics/SVG/1.1/DTD/svg11.dtd">
<svg version="1.1" id="Calque_1" xmlns="http://www.w3.org/2000/svg" xmlns:xlink="http://www.w3.org/1999/xlink" x="0px" y="0px"
	 width="32px" height="32px" viewBox="24 24 32 32" enable-background="new 24 24 32 32" xml:space="preserve">
<g>
	<path fill="#FFFBFF" d="M31.42,56L24,52.586V31.138l7.42,3.38V56z M31.42,31.172h-1.779c0-0.995,0.159-1.93,0.476-2.805
		c0.317-0.875,0.749-1.635,1.293-2.282c0.545-0.646,1.183-1.156,1.914-1.527S34.834,24,35.661,24c0.887,0,1.713,0.191,2.48,0.575
		c0.766,0.383,1.432,0.97,1.994,1.759l-1.24,1.218c-0.419-0.583-0.919-1.047-1.5-1.39c-0.581-0.343-1.159-0.515-1.733-0.515
		c-0.587,0-1.138,0.143-1.653,0.429c-0.515,0.286-0.964,0.677-1.348,1.175c-0.383,0.498-0.686,1.084-0.907,1.759
		C31.531,29.685,31.42,30.406,31.42,31.172z M56,56H32.696V35.101H56V56z M50.376,33.283h-1.761c0-0.744-0.11-1.447-0.332-2.11
		c-0.223-0.664-0.524-1.241-0.907-1.733c-0.384-0.492-0.833-0.881-1.348-1.167c-0.516-0.286-1.066-0.429-1.653-0.429
		s-1.139,0.143-1.653,0.429c-0.515,0.286-0.964,0.675-1.348,1.167c-0.383,0.492-0.686,1.069-0.907,1.733s-0.333,1.367-0.333,2.11
		h-1.778c0-0.972,0.159-1.89,0.476-2.754s0.749-1.616,1.293-2.256s1.183-1.147,1.914-1.519s1.509-0.558,2.336-0.558
		c0.826,0,1.605,0.186,2.336,0.558s1.365,0.878,1.904,1.519s0.967,1.393,1.285,2.256C50.218,31.393,50.376,32.311,50.376,33.283z"/>
</g>
</svg>
