<?xml version="1.0" encoding="utf-8"?>
<!-- Generator: Adobe Illustrator 15.0.2, SVG Export Plug-In . SVG Version: 6.00 Build 0)  -->
<!DOCTYPE svg PUBLIC "-//W3C//DTD SVG 1.1//EN" "http://www.w3.org/Graphics/SVG/1.1/DTD/svg11.dtd">
<svg version="1.1" id="Calque_1" xmlns="http://www.w3.org/2000/svg" xmlns:xlink="http://www.w3.org/1999/xlink" x="0px" y="0px"
	 width="80px" height="80px" viewBox="0 0 80 80" enable-background="new 0 0 80 80" xml:space="preserve">
<g>
	<g>
		<g>
			<rect x="22.708" fill="#006E12" width="57.292" height="11.428"/>
		</g>
		<g>
			<g>
				<path fill="#006E12" d="M41.932,34.864c0.291,8.26-5.443,14.954-12.811,14.954c-7.366,0-13.575-6.694-13.868-14.954
					c-0.292-8.259,5.442-14.955,12.81-14.955S41.639,26.605,41.932,34.864z"/>
				<path fill="#006E12" d="M0,80c0,0,0.547-19.393,5.241-25.021C9.936,49.348,17.76,49.82,17.76,49.82s5.164,5.57,11.658,5.57
					s11.658-5.57,11.658-5.57s7.824-0.473,12.52,5.158C58.289,60.607,58.837,80,58.837,80H0z"/>
			</g>
		</g>
	</g>
	<g>
		<path fill="#006E12" d="M45.479,27.5H80V16.07H33.992C39.119,17.909,43.337,22.125,45.479,27.5z"/>
		<path fill="#006E12" d="M45.379,43.57H80V32.143H46.745c0.13,0.836,0.217,1.686,0.248,2.551
			C47.104,37.797,46.534,40.835,45.379,43.57z"/>
	</g>
</g>
</svg>
