<?xml version="1.0" encoding="utf-8"?>
<!-- Generator: Adobe Illustrator 15.0.2, SVG Export Plug-In . SVG Version: 6.00 Build 0)  -->
<!DOCTYPE svg PUBLIC "-//W3C//DTD SVG 1.1//EN" "http://www.w3.org/Graphics/SVG/1.1/DTD/svg11.dtd">
<svg version="1.1" id="Calque_1" xmlns="http://www.w3.org/2000/svg" xmlns:xlink="http://www.w3.org/1999/xlink" x="0px" y="0px"
	 width="80px" height="80px" viewBox="0 0 80 80" enable-background="new 0 0 80 80" xml:space="preserve">
<g>
	<path fill="#006E12" d="M18.551,80L0,71.464V17.845l18.551,8.45V80z M18.551,17.93h-4.447c0-2.488,0.397-4.826,1.19-7.013
		s1.872-4.089,3.234-5.705c1.363-1.616,2.958-2.889,4.784-3.818S27.086,0,29.152,0c2.216,0,4.282,0.479,6.199,1.437
		c1.916,0.958,3.579,2.424,4.986,4.397l-3.1,3.045c-1.048-1.458-2.298-2.617-3.75-3.475s-2.897-1.287-4.334-1.287
		c-1.468,0-2.845,0.358-4.133,1.073s-2.411,1.694-3.369,2.938c-0.958,1.244-1.715,2.709-2.269,4.396
		C18.828,14.213,18.551,16.014,18.551,17.93z M80,80H21.741V27.753H80V80z M65.94,23.207h-4.402c0-1.859-0.276-3.618-0.831-5.276
		c-0.554-1.659-1.31-3.103-2.268-4.333c-0.959-1.229-2.082-2.202-3.369-2.917c-1.288-0.715-2.665-1.073-4.133-1.073
		c-1.467,0-2.845,0.357-4.133,1.073c-1.287,0.715-2.41,1.687-3.368,2.917c-0.958,1.23-1.715,2.674-2.269,4.333
		s-0.831,3.417-0.831,5.276H35.89c0-2.431,0.396-4.726,1.19-6.885c0.794-2.159,1.872-4.04,3.234-5.641
		c1.362-1.602,2.957-2.867,4.784-3.796c1.826-0.929,3.772-1.394,5.839-1.394s4.013,0.465,5.84,1.394
		c1.826,0.929,3.414,2.195,4.761,3.796c1.348,1.601,2.418,3.481,3.212,5.641S65.94,20.776,65.94,23.207z"/>
</g>
</svg>
