<?xml version="1.0" encoding="utf-8"?>
<!-- Generator: Adobe Illustrator 15.0.2, SVG Export Plug-In . SVG Version: 6.00 Build 0)  -->
<!DOCTYPE svg PUBLIC "-//W3C//DTD SVG 1.1//EN" "http://www.w3.org/Graphics/SVG/1.1/DTD/svg11.dtd">
<svg version="1.1" id="Calque_1" xmlns="http://www.w3.org/2000/svg" xmlns:xlink="http://www.w3.org/1999/xlink" x="0px" y="0px"
	 width="16px" height="16px" viewBox="0 0 16 16" enable-background="new 0 0 16 16" xml:space="preserve">
<g>
	<path fill="#2D2D2D" d="M13.273,4.404h-0.002L2.726,4.396c-0.466,0-0.843-0.377-0.842-0.843c0-0.465,0.377-0.843,0.843-0.843
		l10.546,0.009c0.465,0,0.843,0.377,0.843,0.843C14.115,4.028,13.736,4.404,13.273,4.404"/>
	<path fill="#2D2D2D" d="M9.162,1.133H9.159l-2.32-0.008C6.528,1.124,6.277,0.871,6.278,0.561C6.279,0.25,6.499,0.003,6.842,0
		l2.322,0.008c0.309,0,0.563,0.254,0.561,0.564C9.723,0.882,9.473,1.133,9.162,1.133"/>
	<g>
		<g>
			<path fill="#2D2D2D" d="M13.273,6.205H2.814L2.882,7.38c0,0.033-0.007,0.064-0.005,0.098l0.457,7.249
				C3.369,15.427,3.97,16,4.672,16h6.743c0.701,0,1.304-0.573,1.338-1.273l0.458-7.249c0.001-0.033-0.006-0.064-0.007-0.097
				L13.273,6.205z M5.254,14.738c-0.006,0-0.014,0.001-0.021,0.001c-0.307,0-0.56-0.242-0.572-0.552L4.364,8.175
				C4.353,7.86,4.598,7.595,4.915,7.583c0.304-0.006,0.581,0.234,0.594,0.551l0.297,6.013C5.817,14.46,5.571,14.727,5.254,14.738z
				 M8.559,14.168c0,0.311-0.253,0.563-0.563,0.563c-0.311-0.002-0.562-0.252-0.562-0.563l0.01-6.013c0-0.31,0.25-0.562,0.562-0.562
				h0.001c0.311,0.001,0.563,0.252,0.563,0.563L8.559,14.168z M11.329,14.189c-0.013,0.308-0.267,0.55-0.57,0.55
				c-0.01,0-0.016-0.001-0.022-0.001c-0.316-0.014-0.563-0.279-0.551-0.594l0.316-6.014c0.012-0.314,0.273-0.563,0.596-0.549
				c0.314,0.013,0.561,0.278,0.547,0.594L11.329,14.189z"/>
		</g>
	</g>
</g>
</svg>
